<svg width="525" height="363" viewBox="0 0 525 363" fill="none" xmlns="http://www.w3.org/2000/svg">
<rect width="445" height="254" fill="white"/>
<line x1="16" y1="55.6" x2="429" y2="55.6" stroke="#E6E6E6" stroke-width="0.8"/>
<line x1="16" y1="87.6" x2="429" y2="87.6" stroke="#E6E6E6" stroke-width="0.8"/>
<line x1="16" y1="127.6" x2="429" y2="127.6" stroke="#E6E6E6" stroke-width="0.8"/>
<line x1="16" y1="167.6" x2="429" y2="167.6" stroke="#E6E6E6" stroke-width="0.8"/>
<line x1="16" y1="207.6" x2="429" y2="207.6" stroke="#E6E6E6" stroke-width="0.8"/>
<path d="M22.16 39.16C25.792 39.16 27.984 36.984 27.984 33.64C27.984 30.296 25.792 28.12 22.16 28.12C18.608 28.12 16.4 30.296 16.4 33.64C16.4 36.984 18.608 39.16 22.16 39.16ZM22.16 36.856C19.808 36.856 18.944 36.024 18.944 33.64C18.944 31.256 19.808 30.424 22.16 30.424C24.512 30.424 25.424 31.256 25.424 33.64C25.424 36.024 24.512 36.856 22.16 36.856ZM34.9986 39L38.6626 30.984H36.0386L33.6226 36.664H33.4626L31.0626 30.984H28.3906L32.0386 39H34.9986ZM43.5523 39.16C46.0963 39.16 47.7923 37.944 47.7923 36.2V36.024H45.3923V36.184C45.3923 36.872 44.8963 37.24 43.4723 37.24C41.9203 37.24 41.3443 36.712 41.2803 35.48H47.8083C47.8403 35.208 47.8723 35 47.8723 34.712C47.8723 32.2 46.1283 30.824 43.5043 30.824C40.8643 30.824 39.0563 32.44 39.0563 35C39.0563 37.848 40.8803 39.16 43.5523 39.16ZM43.4563 32.696C44.8643 32.696 45.5043 33.16 45.5683 34.216H41.3123C41.4243 33.176 42.0323 32.696 43.4563 32.696ZM51.29 39V34.36C51.29 33.352 51.674 32.856 52.746 32.856C53.722 32.856 54.074 33.24 54.074 34.12V34.952H56.474V33.624C56.474 32.056 55.738 30.824 53.946 30.824C52.33 30.824 51.482 31.816 51.258 33.112H51.114V30.984H48.89V39H51.29ZM59.8071 39.16C61.5831 39.16 62.7031 38.408 63.0711 37.16H63.1991V39H65.4391V34.296C65.4391 32.2 64.1751 30.824 61.5031 30.824C58.8631 30.824 57.1991 32.2 57.1991 34.184V34.232H59.6151V34.168C59.6151 33.256 60.1111 32.936 61.3271 32.936C62.6071 32.936 63.0711 33.224 63.0711 34.264V34.568L59.6311 34.92C57.9191 35.096 57.0391 35.832 57.0391 37.016C57.0391 38.36 58.0791 39.16 59.8071 39.16ZM59.4551 36.856C59.4551 36.472 59.7111 36.312 60.2871 36.264L63.0711 35.944C63.0071 37.08 62.1271 37.464 60.4951 37.464C59.7911 37.464 59.4551 37.288 59.4551 36.856ZM69.0556 39V28.28H66.6556V39H69.0556ZM72.7119 39V28.28H70.3119V39H72.7119ZM81.3009 39.16C84.7089 39.16 86.0689 37.592 86.0689 35.848C86.0689 34.376 85.2049 33.208 82.8049 32.824L79.7969 32.344C78.9009 32.184 78.5489 31.96 78.5489 31.336C78.5489 30.648 79.0769 30.312 80.8049 30.312C82.9329 30.312 83.4609 30.744 83.4609 31.768V31.992H85.8769V31.896C85.8769 29.64 84.3409 28.12 81.0449 28.12C77.4449 28.12 76.1329 29.816 76.1329 31.432C76.1329 33.176 77.2689 34.136 79.1889 34.44L82.1969 34.872C83.3009 35.064 83.6689 35.304 83.6689 35.96C83.6689 36.68 83.2209 36.968 81.3009 36.968C79.1249 36.968 78.6289 36.568 78.6289 35.576V35.288H76.2289V35.384C76.2289 37.88 78.0529 39.16 81.3009 39.16ZM89.5103 39.16C91.2863 39.16 92.4063 38.408 92.7743 37.16H92.9023V39H95.1423V34.296C95.1423 32.2 93.8783 30.824 91.2063 30.824C88.5663 30.824 86.9023 32.2 86.9023 34.184V34.232H89.3183V34.168C89.3183 33.256 89.8143 32.936 91.0303 32.936C92.3103 32.936 92.7743 33.224 92.7743 34.264V34.568L89.3343 34.92C87.6223 35.096 86.7423 35.832 86.7423 37.016C86.7423 38.36 87.7823 39.16 89.5103 39.16ZM89.1583 36.856C89.1583 36.472 89.4143 36.312 89.9903 36.264L92.7743 35.944C92.7103 37.08 91.8303 37.464 90.1983 37.464C89.4943 37.464 89.1583 37.288 89.1583 36.856ZM102.327 39L105.991 30.984H103.367L100.951 36.664H100.791L98.3908 30.984H95.7188L99.3668 39H102.327ZM109.024 30.168V28.28H106.624V30.168H109.024ZM109.024 39V30.984H106.624V39H109.024ZM112.681 39V34.952C112.681 33.592 113.225 32.984 114.745 32.984C116.217 32.984 116.745 33.528 116.745 34.808V39H119.145V34.008C119.145 32.232 118.105 30.824 115.913 30.824C113.817 30.824 112.857 32.104 112.649 33.448H112.505V30.984H110.281V39H112.681ZM123.879 38.184C125.671 38.184 126.615 37.368 126.871 36.184H126.999V37.992C126.999 39.56 126.535 39.88 124.999 39.88C123.367 39.88 123.015 39.608 123.015 38.712H120.615C120.615 40.728 122.247 41.88 124.839 41.88C127.703 41.88 129.399 40.632 129.399 37.832V30.984H127.159V32.92H127.031C126.775 31.528 125.607 30.824 123.975 30.824C121.575 30.824 120.119 32.264 120.119 34.504C120.119 36.76 121.495 38.184 123.879 38.184ZM122.535 34.504C122.535 33.32 123.207 32.904 124.743 32.904C126.231 32.904 126.999 33.32 126.999 34.408V34.584C126.999 35.688 126.247 36.12 124.711 36.12C123.207 36.12 122.535 35.688 122.535 34.504ZM134.719 39.16C137.199 39.16 138.687 38.168 138.687 36.664C138.687 35.336 137.887 34.616 135.743 34.376L134.031 34.168C132.975 34.04 132.751 33.864 132.751 33.448C132.751 32.936 133.055 32.728 134.255 32.728C135.727 32.728 136.047 33.064 136.047 33.72V33.816H138.447V33.768C138.447 31.816 136.959 30.824 134.335 30.824C131.583 30.824 130.383 31.944 130.383 33.352C130.383 34.696 131.279 35.416 132.879 35.592L135.135 35.864C136.079 35.992 136.319 36.12 136.319 36.568C136.319 37.048 136.015 37.256 134.735 37.256C133.375 37.256 132.927 37.064 132.927 36.344V36.2H130.527V36.248C130.527 38.104 132.015 39.16 134.719 39.16Z" fill="black"/>
<path d="M18.4 226.12C17.7467 226.12 17.2267 225.937 16.84 225.57C16.46 225.203 16.27 224.687 16.27 224.02H17.33C17.33 224.353 17.41 224.63 17.57 224.85C17.7367 225.07 18.0067 225.18 18.38 225.18C18.7467 225.18 19.0067 225.077 19.16 224.87C19.3133 224.657 19.39 224.387 19.39 224.06V219H20.45V224.06C20.45 224.72 20.2667 225.23 19.9 225.59C19.5333 225.943 19.0333 226.12 18.4 226.12ZM23.6562 226.12C23.0563 226.12 22.5829 225.933 22.2363 225.56C21.8963 225.187 21.7263 224.63 21.7263 223.89V221.04H22.7863V223.78C22.7863 224.74 23.1796 225.22 23.9663 225.22C24.3596 225.22 24.6829 225.08 24.9363 224.8C25.1896 224.52 25.3163 224.12 25.3163 223.6V221.04H26.3763V226H25.4363L25.3563 225.13C25.2029 225.437 24.9763 225.68 24.6763 225.86C24.3829 226.033 24.0429 226.12 23.6562 226.12ZM27.7247 226V221.04H28.6647L28.7447 221.91C28.898 221.603 29.1214 221.363 29.4147 221.19C29.7147 221.01 30.058 220.92 30.4447 220.92C31.0447 220.92 31.5147 221.107 31.8547 221.48C32.2014 221.853 32.3747 222.41 32.3747 223.15V226H31.3247V223.26C31.3247 222.3 30.9314 221.82 30.1447 221.82C29.7514 221.82 29.4247 221.96 29.1647 222.24C28.9114 222.52 28.7847 222.92 28.7847 223.44V226H27.7247Z" fill="black" fill-opacity="0.6"/>
<path d="M96.4 226.12C95.7467 226.12 95.2267 225.937 94.84 225.57C94.46 225.203 94.27 224.687 94.27 224.02H95.33C95.33 224.353 95.41 224.63 95.57 224.85C95.7367 225.07 96.0067 225.18 96.38 225.18C96.7467 225.18 97.0067 225.077 97.16 224.87C97.3133 224.657 97.39 224.387 97.39 224.06V219H98.45V224.06C98.45 224.72 98.2667 225.23 97.9 225.59C97.5333 225.943 97.0333 226.12 96.4 226.12ZM101.656 226.12C101.056 226.12 100.583 225.933 100.236 225.56C99.8963 225.187 99.7263 224.63 99.7263 223.89V221.04H100.786V223.78C100.786 224.74 101.18 225.22 101.966 225.22C102.36 225.22 102.683 225.08 102.936 224.8C103.19 224.52 103.316 224.12 103.316 223.6V221.04H104.376V226H103.436L103.356 225.13C103.203 225.437 102.976 225.68 102.676 225.86C102.383 226.033 102.043 226.12 101.656 226.12ZM105.725 226V218.8H106.785V226H105.725Z" fill="black" fill-opacity="0.6"/>
<path d="M168.26 226L170.84 219H172L174.56 226H173.44L172.84 224.29H169.98L169.38 226H168.26ZM170.28 223.45H172.54L171.41 220.26L170.28 223.45ZM177.219 226.12C176.619 226.12 176.145 225.933 175.799 225.56C175.459 225.187 175.289 224.63 175.289 223.89V221.04H176.349V223.78C176.349 224.74 176.742 225.22 177.529 225.22C177.922 225.22 178.245 225.08 178.499 224.8C178.752 224.52 178.879 224.12 178.879 223.6V221.04H179.939V226H178.999L178.919 225.13C178.765 225.437 178.539 225.68 178.239 225.86C177.945 226.033 177.605 226.12 177.219 226.12ZM183.317 224.48C183.057 224.48 182.817 224.45 182.597 224.39L182.167 224.81C182.241 224.857 182.331 224.897 182.437 224.93C182.544 224.963 182.694 224.993 182.887 225.02C183.081 225.047 183.344 225.073 183.677 225.1C184.337 225.16 184.814 225.32 185.107 225.58C185.401 225.833 185.547 226.173 185.547 226.6C185.547 226.893 185.467 227.17 185.307 227.43C185.154 227.697 184.911 227.91 184.577 228.07C184.251 228.237 183.831 228.32 183.317 228.32C182.624 228.32 182.061 228.187 181.627 227.92C181.201 227.66 180.987 227.263 180.987 226.73C180.987 226.523 181.041 226.317 181.147 226.11C181.261 225.91 181.437 225.72 181.677 225.54C181.537 225.48 181.414 225.417 181.307 225.35C181.207 225.277 181.117 225.203 181.037 225.13V224.89L181.897 224.01C181.511 223.677 181.317 223.24 181.317 222.7C181.317 222.373 181.394 222.077 181.547 221.81C181.707 221.537 181.937 221.32 182.237 221.16C182.537 221 182.897 220.92 183.317 220.92C183.597 220.92 183.857 220.96 184.097 221.04H185.947V221.74L185.067 221.79C185.227 222.063 185.307 222.367 185.307 222.7C185.307 223.033 185.227 223.333 185.067 223.6C184.914 223.867 184.687 224.08 184.387 224.24C184.094 224.4 183.737 224.48 183.317 224.48ZM183.317 223.65C183.624 223.65 183.871 223.57 184.057 223.41C184.251 223.243 184.347 223.01 184.347 222.71C184.347 222.403 184.251 222.17 184.057 222.01C183.871 221.85 183.624 221.77 183.317 221.77C183.004 221.77 182.751 221.85 182.557 222.01C182.371 222.17 182.277 222.403 182.277 222.71C182.277 223.01 182.371 223.243 182.557 223.41C182.751 223.57 183.004 223.65 183.317 223.65ZM181.987 226.63C181.987 226.917 182.114 227.13 182.367 227.27C182.621 227.417 182.937 227.49 183.317 227.49C183.684 227.49 183.981 227.41 184.207 227.25C184.434 227.097 184.547 226.89 184.547 226.63C184.547 226.437 184.471 226.27 184.317 226.13C184.164 225.997 183.874 225.913 183.447 225.88C183.127 225.86 182.844 225.83 182.597 225.79C182.364 225.917 182.204 226.053 182.117 226.2C182.031 226.347 181.987 226.49 181.987 226.63Z" fill="black" fill-opacity="0.6"/>
<path d="M251.02 226.12C250.507 226.12 250.057 226.03 249.67 225.85C249.283 225.67 248.98 225.413 248.76 225.08C248.547 224.747 248.437 224.35 248.43 223.89H249.55C249.557 224.263 249.687 224.58 249.94 224.84C250.193 225.1 250.55 225.23 251.01 225.23C251.417 225.23 251.733 225.133 251.96 224.94C252.193 224.74 252.31 224.487 252.31 224.18C252.31 223.933 252.253 223.733 252.14 223.58C252.033 223.427 251.883 223.3 251.69 223.2C251.503 223.1 251.287 223.01 251.04 222.93C250.793 222.85 250.533 222.763 250.26 222.67C249.72 222.49 249.313 222.257 249.04 221.97C248.773 221.683 248.64 221.307 248.64 220.84C248.633 220.447 248.723 220.103 248.91 219.81C249.103 219.517 249.37 219.29 249.71 219.13C250.057 218.963 250.46 218.88 250.92 218.88C251.373 218.88 251.77 218.963 252.11 219.13C252.457 219.297 252.727 219.53 252.92 219.83C253.113 220.123 253.213 220.467 253.22 220.86H252.1C252.1 220.68 252.053 220.51 251.96 220.35C251.867 220.183 251.73 220.047 251.55 219.94C251.37 219.833 251.15 219.78 250.89 219.78C250.557 219.773 250.28 219.857 250.06 220.03C249.847 220.203 249.74 220.443 249.74 220.75C249.74 221.023 249.82 221.233 249.98 221.38C250.14 221.527 250.36 221.65 250.64 221.75C250.92 221.843 251.24 221.953 251.6 222.08C251.947 222.193 252.257 222.33 252.53 222.49C252.803 222.65 253.02 222.86 253.18 223.12C253.347 223.38 253.43 223.71 253.43 224.11C253.43 224.463 253.34 224.793 253.16 225.1C252.98 225.4 252.71 225.647 252.35 225.84C251.99 226.027 251.547 226.12 251.02 226.12ZM256.869 226.12C256.382 226.12 255.949 226.013 255.569 225.8C255.196 225.58 254.902 225.277 254.689 224.89C254.476 224.503 254.369 224.053 254.369 223.54C254.369 223.02 254.472 222.563 254.679 222.17C254.892 221.777 255.186 221.47 255.559 221.25C255.939 221.03 256.379 220.92 256.879 220.92C257.366 220.92 257.789 221.03 258.149 221.25C258.509 221.463 258.789 221.75 258.989 222.11C259.189 222.47 259.289 222.867 259.289 223.3C259.289 223.367 259.286 223.44 259.279 223.52C259.279 223.593 259.276 223.677 259.269 223.77H255.409C255.442 224.25 255.599 224.617 255.879 224.87C256.166 225.117 256.496 225.24 256.869 225.24C257.169 225.24 257.419 225.173 257.619 225.04C257.826 224.9 257.979 224.713 258.079 224.48H259.139C259.006 224.947 258.739 225.337 258.339 225.65C257.946 225.963 257.456 226.12 256.869 226.12ZM256.869 221.79C256.516 221.79 256.202 221.897 255.929 222.11C255.656 222.317 255.489 222.63 255.429 223.05H258.229C258.209 222.663 258.072 222.357 257.819 222.13C257.566 221.903 257.249 221.79 256.869 221.79ZM260.389 228.2V221.04H261.339L261.449 221.81C261.609 221.577 261.829 221.37 262.109 221.19C262.389 221.01 262.749 220.92 263.189 220.92C263.669 220.92 264.092 221.033 264.459 221.26C264.825 221.487 265.112 221.797 265.319 222.19C265.532 222.583 265.639 223.03 265.639 223.53C265.639 224.03 265.532 224.477 265.319 224.87C265.112 225.257 264.825 225.563 264.459 225.79C264.092 226.01 263.665 226.12 263.179 226.12C262.792 226.12 262.449 226.043 262.149 225.89C261.855 225.737 261.622 225.52 261.449 225.24V228.2H260.389ZM262.999 225.2C263.452 225.2 263.825 225.047 264.119 224.74C264.412 224.427 264.559 224.02 264.559 223.52C264.559 223.193 264.492 222.903 264.359 222.65C264.225 222.397 264.042 222.2 263.809 222.06C263.575 221.913 263.305 221.84 262.999 221.84C262.545 221.84 262.172 221.997 261.879 222.31C261.592 222.623 261.449 223.027 261.449 223.52C261.449 224.02 261.592 224.427 261.879 224.74C262.172 225.047 262.545 225.2 262.999 225.2Z" fill="black" fill-opacity="0.6"/>
<path d="M48.8059 144C35.608 150.074 20 166.5 20 166.5V185H426V26C416.109 46.6067 405.076 57.6674 383.606 68.5C356.344 82.2555 332.18 61.9216 304.254 74.5C279.047 85.8539 280.166 112.884 253.708 121.5C236.871 126.983 225.567 120.778 208.054 124C177.977 129.534 167.077 149.693 136.854 154.5C102.688 159.934 79.8146 129.729 48.8059 144Z" fill="url(#paint0_linear_216_410)"/>
<path d="M20 166C20 166 35.608 149.516 48.8059 143.42C79.8146 129.098 102.688 159.411 136.854 153.957C167.078 149.133 177.977 128.902 208.054 123.349C225.567 120.115 236.871 126.342 253.708 120.84C280.166 112.193 279.047 85.0669 304.254 73.6726C332.18 61.0494 356.344 81.4557 383.606 67.6512C405.076 56.7801 416.109 45.68 426 25" stroke="#2F82FF" stroke-width="2" stroke-linecap="round"/>
<path d="M53.5 198C41.0792 203.161 19.5 203.5 19.5 203.5H426.5V61.5C401.5 102.5 403.956 141.18 366 138C342.453 136.027 340.585 103.964 317 102.5C280.088 100.209 296.77 185.727 260.5 178.5C239.761 174.368 241.463 144.785 220.5 142C193.928 138.47 192.839 177.869 167 185C136.763 193.344 117.614 156.327 88.5 168C71.7907 174.699 70.1242 191.092 53.5 198Z" fill="url(#paint1_linear_216_410)"/>
<path d="M19.5 202.5C19.5 202.5 41.0792 202.161 53.5 197C70.1242 190.092 71.7907 173.699 88.5 167C117.614 155.327 136.763 192.344 167 184C192.839 176.869 193.928 137.47 220.5 141C241.463 143.785 239.761 173.368 260.5 177.5C296.77 184.727 280.088 99.2088 317 101.5C340.585 102.964 342.453 135.027 366 137C403.956 140.18 401.5 101.5 426.5 60.5" stroke="#00EC97" stroke-width="2" stroke-linecap="round"/>
<g filter="url(#filter0_d_216_410)">
<rect x="313" y="166" width="188" height="173" fill="white"/>
</g>
<path d="M407.5 185L415.828 196.577L427.08 187.815L431.81 201.269L445.075 196.033L445.822 210.274L460.025 208.987L456.729 222.862L470.719 225.629L463.649 238.013L476.293 244.609L466.019 254.5L476.293 264.391L463.649 270.987L470.719 283.371L456.729 286.138L460.025 300.013L445.822 298.726L445.075 312.967L431.81 307.731L427.08 321.185L415.828 312.423L407.5 324L399.172 312.423L387.92 321.185L383.19 307.731L369.925 312.967L369.178 298.726L354.975 300.013L358.271 286.138L344.281 283.371L351.351 270.987L338.707 264.391L348.981 254.5L338.707 244.609L351.351 238.013L344.281 225.629L358.271 222.862L354.975 208.987L369.178 210.274L369.925 196.033L383.19 201.269L387.92 187.815L399.172 196.577L407.5 185Z" fill="#00EC97"/>
<path d="M373.374 245V241.336L378.142 234.28H376.014L373.502 238.088L372.622 239.448H372.494L371.598 238.088L369.07 234.28H366.958L371.662 241.304V245H373.374ZM382.872 245.16C385.528 245.16 387.304 243.48 387.304 241.032C387.304 238.552 385.528 236.888 382.872 236.888C380.232 236.888 378.456 238.552 378.456 241.032C378.456 243.48 380.232 245.16 382.872 245.16ZM382.872 243.624C380.952 243.624 380.152 242.712 380.152 241.032C380.152 239.336 380.952 238.408 382.872 238.408C384.808 238.408 385.608 239.336 385.608 241.032C385.608 242.712 384.808 243.624 382.872 243.624ZM391.87 245.16C393.918 245.16 394.974 243.88 395.23 242.536H395.326V245H396.91V237.048H395.198V240.984C395.198 242.712 394.382 243.608 392.622 243.608C390.942 243.608 390.254 242.856 390.254 241.368V237.048H388.542V241.832C388.542 243.672 389.63 245.16 391.87 245.16ZM405.71 245.16C408.878 245.16 410.206 243.656 410.206 242.024C410.206 240.456 409.15 239.48 407.006 239.096L404.398 238.648C403.134 238.376 402.59 238.072 402.59 237.144C402.59 236.184 403.358 235.704 405.31 235.704C407.534 235.704 408.318 236.36 408.318 237.672V237.88H410.03V237.784C410.03 235.688 408.606 234.12 405.47 234.12C402.142 234.12 400.862 235.688 400.862 237.24C400.862 239 402.142 239.832 403.95 240.152L406.574 240.584C407.934 240.84 408.478 241.192 408.478 242.12C408.478 243.128 407.758 243.576 405.71 243.576C403.358 243.576 402.606 242.936 402.606 241.656V241.4H400.878V241.496C400.878 243.752 402.51 245.16 405.71 245.16ZM413.769 245.16C415.577 245.16 416.841 244.36 417.257 243.016H417.369V245H418.953V240.168C418.953 238.264 417.817 236.888 415.289 236.888C412.761 236.888 411.257 238.248 411.257 240.056V240.12H412.969V240.056C412.969 238.888 413.689 238.408 415.161 238.408C416.681 238.408 417.257 238.872 417.257 240.184V240.648L413.641 241.032C412.073 241.208 411.081 241.848 411.081 243.08C411.081 244.392 412.121 245.16 413.769 245.16ZM412.809 242.968C412.809 242.344 413.241 242.136 414.137 242.024L417.257 241.672C417.257 243.24 416.041 243.912 414.233 243.912C413.241 243.912 412.809 243.608 412.809 242.968ZM425.599 245L429.343 237.048H427.471L424.639 243.32H424.511L421.679 237.048H419.775L423.487 245H425.599ZM434.23 245.16C436.598 245.16 438.262 243.992 438.262 242.296V242.152H436.534V242.28C436.534 243.224 435.846 243.768 434.182 243.768C432.342 243.768 431.59 242.952 431.526 241.416H438.278C438.326 241.176 438.342 240.952 438.342 240.664C438.342 238.248 436.662 236.888 434.198 236.888C431.606 236.888 429.91 238.552 429.91 241.032C429.91 243.688 431.622 245.16 434.23 245.16ZM434.166 238.248C435.862 238.248 436.71 238.952 436.71 240.424V240.456H431.542C431.638 239.032 432.406 238.248 434.166 238.248ZM443.14 245.16C444.932 245.16 446.1 244.296 446.436 242.712H446.548V245H448.132V234.28H446.404V239.208H446.308C445.988 237.864 444.916 236.888 443.028 236.888C440.612 236.888 439.236 238.552 439.236 241.032C439.236 243.48 440.628 245.16 443.14 245.16ZM440.98 241.032C440.98 239.112 441.972 238.456 443.636 238.456C445.412 238.456 446.404 239.288 446.404 240.984V241.112C446.404 242.776 445.364 243.576 443.668 243.576C441.956 243.576 440.98 242.936 440.98 241.032Z" fill="white"/>
<path d="M367.979 278.4V276.144C371.867 275.688 373.451 273.576 373.451 271.272C373.451 269.064 372.155 267.312 368.555 266.736L364.043 266.016C362.699 265.776 362.171 265.44 362.171 264.504C362.171 263.472 362.963 262.968 365.555 262.968C368.747 262.968 369.539 263.616 369.539 265.152V265.488H373.163V265.344C373.163 262.464 371.507 260.4 367.979 259.824V257.52H364.619V259.728C360.203 260.112 358.547 262.44 358.547 264.648C358.547 267.264 360.251 268.704 363.131 269.16L367.643 269.808C369.299 270.096 369.851 270.456 369.851 271.44C369.851 272.52 369.179 272.952 366.299 272.952C363.035 272.952 362.291 272.352 362.291 270.864V270.432H358.691V270.576C358.691 273.864 360.803 275.736 364.619 276.144V278.4H367.979ZM381.925 276V259.92H378.637C377.845 261.504 376.645 261.912 374.869 261.912H374.197V264.384H378.325V276H381.925ZM391.527 276.24C396.687 276.24 399.567 272.976 399.567 267.96C399.567 262.968 396.687 259.68 391.527 259.68C386.343 259.68 383.487 262.968 383.487 267.96C383.487 272.976 386.343 276.24 391.527 276.24ZM391.527 272.736C388.455 272.736 387.351 271.416 387.351 267.96C387.351 264.504 388.455 263.184 391.527 263.184C394.575 263.184 395.703 264.504 395.703 267.96C395.703 271.416 394.575 272.736 391.527 272.736ZM408.777 276.24C413.937 276.24 416.817 272.976 416.817 267.96C416.817 262.968 413.937 259.68 408.777 259.68C403.593 259.68 400.737 262.968 400.737 267.96C400.737 272.976 403.593 276.24 408.777 276.24ZM408.777 272.736C405.705 272.736 404.601 271.416 404.601 267.96C404.601 264.504 405.705 263.184 408.777 263.184C411.825 263.184 412.953 264.504 412.953 267.96C412.953 271.416 411.825 272.736 408.777 272.736ZM422.739 276V271.8H418.107V276H422.739ZM432.097 276.24C437.257 276.24 440.137 272.976 440.137 267.96C440.137 262.968 437.257 259.68 432.097 259.68C426.913 259.68 424.057 262.968 424.057 267.96C424.057 272.976 426.913 276.24 432.097 276.24ZM432.097 272.736C429.025 272.736 427.921 271.416 427.921 267.96C427.921 264.504 429.025 263.184 432.097 263.184C435.145 263.184 436.273 264.504 436.273 267.96C436.273 271.416 435.145 272.736 432.097 272.736ZM449.347 276.24C454.507 276.24 457.387 272.976 457.387 267.96C457.387 262.968 454.507 259.68 449.347 259.68C444.163 259.68 441.307 262.968 441.307 267.96C441.307 272.976 444.163 276.24 449.347 276.24ZM449.347 272.736C446.275 272.736 445.171 271.416 445.171 267.96C445.171 264.504 446.275 263.184 449.347 263.184C452.395 263.184 453.523 264.504 453.523 267.96C453.523 271.416 452.395 272.736 449.347 272.736Z" fill="white"/>
<defs>
<filter id="filter0_d_216_410" x="287" y="140" width="238" height="223" filterUnits="userSpaceOnUse" color-interpolation-filters="sRGB">
<feFlood flood-opacity="0" result="BackgroundImageFix"/>
<feColorMatrix in="SourceAlpha" type="matrix" values="0 0 0 0 0 0 0 0 0 0 0 0 0 0 0 0 0 0 127 0" result="hardAlpha"/>
<feOffset dx="-1" dy="-1"/>
<feGaussianBlur stdDeviation="12.5"/>
<feComposite in2="hardAlpha" operator="out"/>
<feColorMatrix type="matrix" values="0 0 0 0 0 0 0 0 0 0 0 0 0 0 0 0 0 0 0.1 0"/>
<feBlend mode="normal" in2="BackgroundImageFix" result="effect1_dropShadow_216_410"/>
<feBlend mode="normal" in="SourceGraphic" in2="effect1_dropShadow_216_410" result="shape"/>
</filter>
<linearGradient id="paint0_linear_216_410" x1="223.272" y1="41" x2="241.757" y2="154.53" gradientUnits="userSpaceOnUse">
<stop stop-color="#2F82FF" stop-opacity="0.69"/>
<stop offset="1" stop-color="#D9D9D9" stop-opacity="0"/>
</linearGradient>
<linearGradient id="paint1_linear_216_410" x1="200" y1="43.5" x2="223" y2="182.5" gradientUnits="userSpaceOnUse">
<stop stop-color="#2CFF9A" stop-opacity="0.62"/>
<stop offset="1" stop-color="#2CFF9A" stop-opacity="0"/>
</linearGradient>
</defs>
</svg>
