<svg width="596" height="356" viewBox="0 0 596 356" fill="none" xmlns="http://www.w3.org/2000/svg">
<rect x="151" width="445" height="256" fill="white"/>
<line x1="167" y1="47.6" x2="580" y2="47.6" stroke="#E6E6E6" stroke-width="0.8"/>
<line x1="167" y1="95.6" x2="580" y2="95.6" stroke="#E6E6E6" stroke-width="0.8"/>
<line x1="167" y1="143.6" x2="580" y2="143.6" stroke="#E6E6E6" stroke-width="0.8"/>
<line x1="167" y1="191.6" x2="580" y2="191.6" stroke="#E6E6E6" stroke-width="0.8"/>
<path d="M181.272 31L182.904 25.64L183.656 22.552H183.832L184.584 25.64L186.184 31H189.752L192.296 20.28H189.672L188.376 26.36L188.008 28.712H187.832L187.336 26.36L185.56 20.28H181.992L180.2 26.36L179.704 28.712H179.528L179.16 26.36L177.864 20.28H175.176L177.704 31H181.272ZM197.38 31.16C199.924 31.16 201.62 29.944 201.62 28.2V28.024H199.22V28.184C199.22 28.872 198.724 29.24 197.3 29.24C195.748 29.24 195.172 28.712 195.108 27.48H201.636C201.668 27.208 201.7 27 201.7 26.712C201.7 24.2 199.956 22.824 197.332 22.824C194.692 22.824 192.884 24.44 192.884 27C192.884 29.848 194.708 31.16 197.38 31.16ZM197.284 24.696C198.692 24.696 199.332 25.16 199.396 26.216H195.14C195.252 25.176 195.86 24.696 197.284 24.696ZM205.118 31V20.28H202.718V31H205.118ZM210.646 31.16C213.222 31.16 214.982 29.768 214.982 27.704V27.48H212.598V27.608C212.598 28.632 211.846 29 210.598 29C209.174 29 208.518 28.472 208.518 27C208.518 25.512 209.174 24.984 210.598 24.984C211.846 24.984 212.598 25.352 212.598 26.376V26.504H214.982V26.28C214.982 24.2 213.222 22.824 210.646 22.824C207.894 22.824 206.134 24.44 206.134 27C206.134 29.528 207.894 31.16 210.646 31.16ZM220.287 31.16C223.023 31.16 224.863 29.528 224.863 27C224.863 24.44 223.023 22.824 220.287 22.824C217.551 22.824 215.711 24.44 215.711 27C215.711 29.528 217.551 31.16 220.287 31.16ZM220.287 29.032C218.655 29.032 218.095 28.408 218.095 27C218.095 25.592 218.655 24.936 220.287 24.936C221.903 24.936 222.479 25.592 222.479 27C222.479 28.408 221.903 29.032 220.287 29.032ZM228.243 31V26.952C228.243 25.56 228.659 24.984 230.115 24.984C231.491 24.984 231.955 25.48 231.955 26.808V31H234.355V26.952C234.355 25.56 234.771 24.984 236.227 24.984C237.603 24.984 238.067 25.48 238.067 26.808V31H240.467V26.008C240.467 24.184 239.459 22.824 237.395 22.824C235.331 22.824 234.515 24.088 234.323 25.448H234.179C234.003 23.96 233.059 22.824 231.203 22.824C229.187 22.824 228.387 24.072 228.195 25.416H228.067V22.984H225.843V31H228.243ZM245.943 31.16C248.487 31.16 250.183 29.944 250.183 28.2V28.024H247.783V28.184C247.783 28.872 247.287 29.24 245.863 29.24C244.311 29.24 243.735 28.712 243.671 27.48H250.199C250.231 27.208 250.263 27 250.263 26.712C250.263 24.2 248.519 22.824 245.895 22.824C243.255 22.824 241.447 24.44 241.447 27C241.447 29.848 243.271 31.16 245.943 31.16ZM245.847 24.696C247.255 24.696 247.895 25.16 247.959 26.216H243.703C243.815 25.176 244.423 24.696 245.847 24.696ZM255.973 31V28.776H256.117C256.405 30.36 257.461 31.16 259.317 31.16C261.813 31.16 263.173 29.528 263.173 27C263.173 24.44 261.829 22.824 259.429 22.824C257.525 22.824 256.549 23.768 256.277 25.112H256.149V20.28H253.749V31H255.973ZM256.149 27.048V26.92C256.149 25.528 256.949 25.016 258.501 25.016C260.037 25.016 260.741 25.528 260.741 27C260.741 28.456 260.037 28.968 258.485 28.968C256.965 28.968 256.149 28.44 256.149 27.048ZM266.635 31.16C268.411 31.16 269.531 30.408 269.899 29.16H270.027V31H272.267V26.296C272.267 24.2 271.003 22.824 268.331 22.824C265.691 22.824 264.027 24.2 264.027 26.184V26.232H266.443V26.168C266.443 25.256 266.939 24.936 268.155 24.936C269.435 24.936 269.899 25.224 269.899 26.264V26.568L266.459 26.92C264.747 27.096 263.867 27.832 263.867 29.016C263.867 30.36 264.907 31.16 266.635 31.16ZM266.283 28.856C266.283 28.472 266.539 28.312 267.115 28.264L269.899 27.944C269.835 29.08 268.955 29.464 267.323 29.464C266.619 29.464 266.283 29.288 266.283 28.856ZM277.756 31.16C280.332 31.16 282.092 29.768 282.092 27.704V27.48H279.708V27.608C279.708 28.632 278.956 29 277.708 29C276.284 29 275.628 28.472 275.628 27C275.628 25.512 276.284 24.984 277.708 24.984C278.956 24.984 279.708 25.352 279.708 26.376V26.504H282.092V26.28C282.092 24.2 280.332 22.824 277.756 22.824C275.004 22.824 273.244 24.44 273.244 27C273.244 29.528 275.004 31.16 277.756 31.16ZM285.524 31V28.104H287.364L289.364 31H292.196L289.316 26.856L292.244 22.984H289.396L287.348 25.96H285.524V20.28H283.124V31H285.524ZM295.756 27.48C295.756 26.184 296.092 22.632 296.092 21.4V20.28H293.004V21.4C293.004 22.632 293.34 26.168 293.34 27.48H295.756ZM295.916 31V28.392H293.18V31H295.916Z" fill="black"/>
<path d="M169.4 226.12C168.747 226.12 168.227 225.937 167.84 225.57C167.46 225.203 167.27 224.687 167.27 224.02H168.33C168.33 224.353 168.41 224.63 168.57 224.85C168.737 225.07 169.007 225.18 169.38 225.18C169.747 225.18 170.007 225.077 170.16 224.87C170.313 224.657 170.39 224.387 170.39 224.06V219H171.45V224.06C171.45 224.72 171.267 225.23 170.9 225.59C170.533 225.943 170.033 226.12 169.4 226.12ZM174.656 226.12C174.056 226.12 173.583 225.933 173.236 225.56C172.896 225.187 172.726 224.63 172.726 223.89V221.04H173.786V223.78C173.786 224.74 174.18 225.22 174.966 225.22C175.36 225.22 175.683 225.08 175.936 224.8C176.19 224.52 176.316 224.12 176.316 223.6V221.04H177.376V226H176.436L176.356 225.13C176.203 225.437 175.976 225.68 175.676 225.86C175.383 226.033 175.043 226.12 174.656 226.12ZM178.725 226V221.04H179.665L179.745 221.91C179.898 221.603 180.121 221.363 180.415 221.19C180.715 221.01 181.058 220.92 181.445 220.92C182.045 220.92 182.515 221.107 182.855 221.48C183.201 221.853 183.375 222.41 183.375 223.15V226H182.325V223.26C182.325 222.3 181.931 221.82 181.145 221.82C180.751 221.82 180.425 221.96 180.165 222.24C179.911 222.52 179.785 222.92 179.785 223.44V226H178.725Z" fill="black" fill-opacity="0.6"/>
<path d="M175.888 84V75.6H176.896V84H175.888ZM178.617 84V78.048H179.529L179.589 79.116C179.781 78.74 180.057 78.444 180.417 78.228C180.777 78.012 181.185 77.904 181.641 77.904C182.345 77.904 182.905 78.12 183.321 78.552C183.745 78.976 183.957 79.632 183.957 80.52V84H182.949V80.628C182.949 79.388 182.437 78.768 181.413 78.768C180.901 78.768 180.473 78.956 180.129 79.332C179.793 79.7 179.625 80.228 179.625 80.916V84H178.617ZM187.083 84L184.827 78.048H185.883L187.671 83.028L189.471 78.048H190.503L188.247 84H187.083ZM194.032 84.144C193.472 84.144 192.968 84.016 192.52 83.76C192.072 83.504 191.716 83.144 191.452 82.68C191.196 82.208 191.068 81.656 191.068 81.024C191.068 80.392 191.2 79.844 191.464 79.38C191.728 78.908 192.084 78.544 192.532 78.288C192.988 78.032 193.496 77.904 194.056 77.904C194.616 77.904 195.12 78.032 195.568 78.288C196.016 78.544 196.368 78.908 196.624 79.38C196.888 79.844 197.02 80.392 197.02 81.024C197.02 81.656 196.888 82.208 196.624 82.68C196.36 83.144 196 83.504 195.544 83.76C195.096 84.016 194.592 84.144 194.032 84.144ZM194.032 83.28C194.376 83.28 194.696 83.196 194.992 83.028C195.288 82.86 195.528 82.608 195.712 82.272C195.896 81.936 195.988 81.52 195.988 81.024C195.988 80.528 195.896 80.112 195.712 79.776C195.536 79.44 195.3 79.188 195.004 79.02C194.708 78.852 194.392 78.768 194.056 78.768C193.712 78.768 193.392 78.852 193.096 79.02C192.8 79.188 192.56 79.44 192.376 79.776C192.192 80.112 192.1 80.528 192.1 81.024C192.1 81.52 192.192 81.936 192.376 82.272C192.56 82.608 192.796 82.86 193.084 83.028C193.38 83.196 193.696 83.28 194.032 83.28ZM199.034 76.728C198.834 76.728 198.666 76.664 198.53 76.536C198.402 76.4 198.338 76.232 198.338 76.032C198.338 75.84 198.402 75.68 198.53 75.552C198.666 75.424 198.834 75.36 199.034 75.36C199.226 75.36 199.39 75.424 199.526 75.552C199.662 75.68 199.73 75.84 199.73 76.032C199.73 76.232 199.662 76.4 199.526 76.536C199.39 76.664 199.226 76.728 199.034 76.728ZM198.53 84V78.048H199.538V84H198.53ZM204.029 84.144C203.461 84.144 202.949 84.016 202.493 83.76C202.045 83.496 201.689 83.132 201.425 82.668C201.169 82.196 201.041 81.648 201.041 81.024C201.041 80.4 201.169 79.856 201.425 79.392C201.689 78.92 202.045 78.556 202.493 78.3C202.949 78.036 203.461 77.904 204.029 77.904C204.733 77.904 205.325 78.088 205.805 78.456C206.293 78.824 206.601 79.316 206.729 79.932H205.697C205.617 79.564 205.421 79.28 205.109 79.08C204.797 78.872 204.433 78.768 204.017 78.768C203.681 78.768 203.365 78.852 203.069 79.02C202.773 79.188 202.533 79.44 202.349 79.776C202.165 80.112 202.073 80.528 202.073 81.024C202.073 81.52 202.165 81.936 202.349 82.272C202.533 82.608 202.773 82.864 203.069 83.04C203.365 83.208 203.681 83.292 204.017 83.292C204.433 83.292 204.797 83.192 205.109 82.992C205.421 82.784 205.617 82.492 205.697 82.116H206.729C206.609 82.716 206.305 83.204 205.817 83.58C205.329 83.956 204.733 84.144 204.029 84.144ZM210.813 84.144C210.245 84.144 209.741 84.016 209.301 83.76C208.861 83.496 208.513 83.132 208.257 82.668C208.009 82.204 207.885 81.656 207.885 81.024C207.885 80.4 208.009 79.856 208.257 79.392C208.505 78.92 208.849 78.556 209.289 78.3C209.737 78.036 210.253 77.904 210.837 77.904C211.413 77.904 211.909 78.036 212.325 78.3C212.749 78.556 213.073 78.896 213.297 79.32C213.521 79.744 213.633 80.2 213.633 80.688C213.633 80.776 213.629 80.864 213.621 80.952C213.621 81.04 213.621 81.14 213.621 81.252H208.881C208.905 81.708 209.009 82.088 209.193 82.392C209.385 82.688 209.621 82.912 209.901 83.064C210.189 83.216 210.493 83.292 210.813 83.292C211.229 83.292 211.577 83.196 211.857 83.004C212.137 82.812 212.341 82.552 212.469 82.224H213.465C213.305 82.776 212.997 83.236 212.541 83.604C212.093 83.964 211.517 84.144 210.813 84.144ZM210.813 78.756C210.333 78.756 209.905 78.904 209.529 79.2C209.161 79.488 208.949 79.912 208.893 80.472H212.637C212.613 79.936 212.429 79.516 212.085 79.212C211.741 78.908 211.317 78.756 210.813 78.756Z" fill="black"/>
<path d="M175.74 130V123H176.58V130H175.74ZM178.014 130V125.04H178.774L178.824 125.93C178.984 125.617 179.214 125.37 179.514 125.19C179.814 125.01 180.154 124.92 180.534 124.92C181.121 124.92 181.588 125.1 181.934 125.46C182.288 125.813 182.464 126.36 182.464 127.1V130H181.624V127.19C181.624 126.157 181.198 125.64 180.344 125.64C179.918 125.64 179.561 125.797 179.274 126.11C178.994 126.417 178.854 126.857 178.854 127.43V130H178.014ZM185.697 130C185.244 130 184.887 129.89 184.627 129.67C184.367 129.45 184.237 129.053 184.237 128.48V125.75H183.377V125.04H184.237L184.347 123.85H185.077V125.04H186.537V125.75H185.077V128.48C185.077 128.793 185.14 129.007 185.267 129.12C185.394 129.227 185.617 129.28 185.937 129.28H186.457V130H185.697ZM189.697 130.12C189.224 130.12 188.804 130.013 188.437 129.8C188.071 129.58 187.781 129.277 187.567 128.89C187.361 128.503 187.257 128.047 187.257 127.52C187.257 127 187.361 126.547 187.567 126.16C187.774 125.767 188.061 125.463 188.427 125.25C188.801 125.03 189.231 124.92 189.717 124.92C190.197 124.92 190.611 125.03 190.957 125.25C191.311 125.463 191.581 125.747 191.767 126.1C191.954 126.453 192.047 126.833 192.047 127.24C192.047 127.313 192.044 127.387 192.037 127.46C192.037 127.533 192.037 127.617 192.037 127.71H188.087C188.107 128.09 188.194 128.407 188.347 128.66C188.507 128.907 188.704 129.093 188.937 129.22C189.177 129.347 189.431 129.41 189.697 129.41C190.044 129.41 190.334 129.33 190.567 129.17C190.801 129.01 190.971 128.793 191.077 128.52H191.907C191.774 128.98 191.517 129.363 191.137 129.67C190.764 129.97 190.284 130.12 189.697 130.12ZM189.697 125.63C189.297 125.63 188.941 125.753 188.627 126C188.321 126.24 188.144 126.593 188.097 127.06H191.217C191.197 126.613 191.044 126.263 190.757 126.01C190.471 125.757 190.117 125.63 189.697 125.63ZM193.161 130V125.04H193.921L193.991 125.99C194.144 125.663 194.377 125.403 194.691 125.21C195.004 125.017 195.391 124.92 195.851 124.92V125.8H195.621C195.327 125.8 195.057 125.853 194.811 125.96C194.564 126.06 194.367 126.233 194.221 126.48C194.074 126.727 194.001 127.067 194.001 127.5V130H193.161ZM196.794 130V125.04H197.554L197.604 125.93C197.764 125.617 197.994 125.37 198.294 125.19C198.594 125.01 198.934 124.92 199.314 124.92C199.9 124.92 200.367 125.1 200.714 125.46C201.067 125.813 201.244 126.36 201.244 127.1V130H200.404V127.19C200.404 126.157 199.977 125.64 199.124 125.64C198.697 125.64 198.34 125.797 198.054 126.11C197.774 126.417 197.634 126.857 197.634 127.43V130H196.794ZM204.746 130.12C204.273 130.12 203.853 130.013 203.486 129.8C203.12 129.58 202.83 129.277 202.616 128.89C202.41 128.503 202.306 128.047 202.306 127.52C202.306 127 202.41 126.547 202.616 126.16C202.823 125.767 203.11 125.463 203.476 125.25C203.85 125.03 204.28 124.92 204.766 124.92C205.246 124.92 205.66 125.03 206.006 125.25C206.36 125.463 206.63 125.747 206.816 126.1C207.003 126.453 207.096 126.833 207.096 127.24C207.096 127.313 207.093 127.387 207.086 127.46C207.086 127.533 207.086 127.617 207.086 127.71H203.136C203.156 128.09 203.243 128.407 203.396 128.66C203.556 128.907 203.753 129.093 203.986 129.22C204.226 129.347 204.48 129.41 204.746 129.41C205.093 129.41 205.383 129.33 205.616 129.17C205.85 129.01 206.02 128.793 206.126 128.52H206.956C206.823 128.98 206.566 129.363 206.186 129.67C205.813 129.97 205.333 130.12 204.746 130.12ZM204.746 125.63C204.346 125.63 203.99 125.753 203.676 126C203.37 126.24 203.193 126.593 203.146 127.06H206.266C206.246 126.613 206.093 126.263 205.806 126.01C205.52 125.757 205.166 125.63 204.746 125.63ZM210.004 130C209.55 130 209.194 129.89 208.934 129.67C208.674 129.45 208.544 129.053 208.544 128.48V125.75H207.684V125.04H208.544L208.654 123.85H209.384V125.04H210.844V125.75H209.384V128.48C209.384 128.793 209.447 129.007 209.574 129.12C209.7 129.227 209.924 129.28 210.244 129.28H210.764V130H210.004ZM214.607 130V123H217.067C217.561 123 217.967 123.08 218.287 123.24C218.614 123.393 218.857 123.607 219.017 123.88C219.177 124.147 219.257 124.447 219.257 124.78C219.257 125.233 219.134 125.59 218.887 125.85C218.647 126.11 218.357 126.29 218.017 126.39C218.277 126.437 218.514 126.54 218.727 126.7C218.941 126.86 219.107 127.06 219.227 127.3C219.354 127.54 219.417 127.803 219.417 128.09C219.417 128.443 219.331 128.767 219.157 129.06C218.984 129.347 218.727 129.577 218.387 129.75C218.047 129.917 217.634 130 217.147 130H214.607ZM215.447 126.06H217.007C217.454 126.06 217.797 125.957 218.037 125.75C218.277 125.537 218.397 125.243 218.397 124.87C218.397 124.517 218.277 124.233 218.037 124.02C217.804 123.807 217.451 123.7 216.977 123.7H215.447V126.06ZM215.447 129.3H217.057C217.537 129.3 217.907 129.19 218.167 128.97C218.427 128.743 218.557 128.43 218.557 128.03C218.557 127.637 218.421 127.323 218.147 127.09C217.874 126.85 217.504 126.73 217.037 126.73H215.447V129.3ZM221.083 123.94C220.916 123.94 220.776 123.887 220.663 123.78C220.556 123.667 220.503 123.527 220.503 123.36C220.503 123.2 220.556 123.067 220.663 122.96C220.776 122.853 220.916 122.8 221.083 122.8C221.243 122.8 221.379 122.853 221.493 122.96C221.606 123.067 221.663 123.2 221.663 123.36C221.663 123.527 221.606 123.667 221.493 123.78C221.379 123.887 221.243 123.94 221.083 123.94ZM220.663 130V125.04H221.503V130H220.663ZM222.965 130V122.8H223.805V130H222.965ZM225.182 130V122.8H226.022V130H225.182ZM230.805 130L231.235 128.03H229.815V127.28H231.395L231.735 125.65H230.235V124.91H231.895L232.315 122.94H233.115L232.695 124.91H234.845L235.265 122.94H236.055L235.635 124.91H237.025V125.65H235.475L235.135 127.28H236.585V128.03H234.975L234.545 130H233.745L234.175 128.03H232.025L231.605 130H230.805ZM232.185 127.28H234.335L234.685 125.65H232.535L232.185 127.28ZM240.446 130L243.026 123H243.916L246.486 130H245.596L244.956 128.2H241.976L241.326 130H240.446ZM242.226 127.52H244.706L243.466 124.06L242.226 127.52ZM247.074 127.45V126.74H251.034V127.45H247.074ZM252.241 130V129.41C252.715 129.037 253.161 128.66 253.581 128.28C254.008 127.893 254.385 127.513 254.711 127.14C255.045 126.767 255.305 126.4 255.491 126.04C255.685 125.68 255.781 125.333 255.781 125C255.781 124.753 255.738 124.523 255.651 124.31C255.571 124.097 255.438 123.927 255.251 123.8C255.065 123.667 254.811 123.6 254.491 123.6C254.185 123.6 253.928 123.67 253.721 123.81C253.515 123.943 253.358 124.123 253.251 124.35C253.151 124.577 253.101 124.82 253.101 125.08H252.291C252.291 124.62 252.388 124.227 252.581 123.9C252.775 123.567 253.038 123.313 253.371 123.14C253.705 122.967 254.081 122.88 254.501 122.88C255.121 122.88 255.628 123.057 256.021 123.41C256.421 123.757 256.621 124.277 256.621 124.97C256.621 125.383 256.518 125.793 256.311 126.2C256.105 126.6 255.841 126.99 255.521 127.37C255.201 127.743 254.858 128.093 254.491 128.42C254.131 128.747 253.795 129.04 253.481 129.3H256.861V130H252.241ZM260.254 130.12C259.807 130.12 259.404 130.04 259.044 129.88C258.684 129.713 258.394 129.467 258.174 129.14C257.961 128.813 257.847 128.407 257.834 127.92H258.684C258.691 128.32 258.831 128.667 259.104 128.96C259.377 129.247 259.761 129.39 260.254 129.39C260.747 129.39 261.117 129.253 261.364 128.98C261.617 128.707 261.744 128.377 261.744 127.99C261.744 127.663 261.664 127.397 261.504 127.19C261.351 126.983 261.141 126.83 260.874 126.73C260.614 126.63 260.327 126.58 260.014 126.58H259.494V125.87H260.014C260.467 125.87 260.821 125.767 261.074 125.56C261.334 125.353 261.464 125.063 261.464 124.69C261.464 124.377 261.361 124.12 261.154 123.92C260.954 123.713 260.654 123.61 260.254 123.61C259.867 123.61 259.557 123.727 259.324 123.96C259.091 124.187 258.961 124.473 258.934 124.82H258.084C258.104 124.44 258.204 124.103 258.384 123.81C258.571 123.517 258.824 123.29 259.144 123.13C259.464 122.963 259.834 122.88 260.254 122.88C260.707 122.88 261.084 122.96 261.384 123.12C261.691 123.28 261.921 123.493 262.074 123.76C262.234 124.027 262.314 124.32 262.314 124.64C262.314 124.993 262.217 125.317 262.024 125.61C261.831 125.897 261.541 126.09 261.154 126.19C261.567 126.277 261.911 126.473 262.184 126.78C262.457 127.087 262.594 127.49 262.594 127.99C262.594 128.377 262.504 128.733 262.324 129.06C262.151 129.38 261.891 129.637 261.544 129.83C261.197 130.023 260.767 130.12 260.254 130.12ZM267.123 130V128.5H263.573V127.85L266.973 123H267.953V127.76H268.993V128.5H267.953V130H267.123ZM264.503 127.76H267.163V123.93L264.503 127.76Z" fill="black" fill-opacity="0.6"/>
<path d="M396.888 84V75.6H399.468C400.948 75.6 402.036 75.976 402.732 76.728C403.436 77.48 403.788 78.512 403.788 79.824C403.788 81.112 403.436 82.132 402.732 82.884C402.036 83.628 400.948 84 399.468 84H396.888ZM397.896 83.16H399.444C400.26 83.16 400.908 83.028 401.388 82.764C401.876 82.492 402.224 82.108 402.432 81.612C402.64 81.108 402.744 80.512 402.744 79.824C402.744 79.12 402.64 78.516 402.432 78.012C402.224 77.508 401.876 77.12 401.388 76.848C400.908 76.576 400.26 76.44 399.444 76.44H397.896V83.16ZM407.163 84.144C406.667 84.144 406.255 84.06 405.927 83.892C405.599 83.724 405.355 83.5 405.195 83.22C405.035 82.94 404.955 82.636 404.955 82.308C404.955 81.7 405.187 81.232 405.651 80.904C406.115 80.576 406.747 80.412 407.547 80.412H409.155V80.34C409.155 79.82 409.019 79.428 408.747 79.164C408.475 78.892 408.111 78.756 407.655 78.756C407.263 78.756 406.923 78.856 406.635 79.056C406.355 79.248 406.179 79.532 406.107 79.908H405.075C405.115 79.476 405.259 79.112 405.507 78.816C405.763 78.52 406.079 78.296 406.455 78.144C406.831 77.984 407.231 77.904 407.655 77.904C408.487 77.904 409.111 78.128 409.527 78.576C409.951 79.016 410.163 79.604 410.163 80.34V84H409.263L409.203 82.932C409.035 83.268 408.787 83.556 408.459 83.796C408.139 84.028 407.707 84.144 407.163 84.144ZM407.319 83.292C407.703 83.292 408.031 83.192 408.303 82.992C408.583 82.792 408.795 82.532 408.939 82.212C409.083 81.892 409.155 81.556 409.155 81.204V81.192H407.631C407.039 81.192 406.619 81.296 406.371 81.504C406.131 81.704 406.011 81.956 406.011 82.26C406.011 82.572 406.123 82.824 406.347 83.016C406.579 83.2 406.903 83.292 407.319 83.292ZM413.864 84C413.32 84 412.892 83.868 412.58 83.604C412.268 83.34 412.112 82.864 412.112 82.176V78.9H411.08V78.048H412.112L412.244 76.62H413.12V78.048H414.872V78.9H413.12V82.176C413.12 82.552 413.196 82.808 413.348 82.944C413.5 83.072 413.768 83.136 414.152 83.136H414.776V84H413.864ZM418.664 84.144C418.096 84.144 417.592 84.016 417.152 83.76C416.712 83.496 416.364 83.132 416.108 82.668C415.86 82.204 415.736 81.656 415.736 81.024C415.736 80.4 415.86 79.856 416.108 79.392C416.356 78.92 416.7 78.556 417.14 78.3C417.588 78.036 418.104 77.904 418.688 77.904C419.264 77.904 419.76 78.036 420.176 78.3C420.6 78.556 420.924 78.896 421.148 79.32C421.372 79.744 421.484 80.2 421.484 80.688C421.484 80.776 421.48 80.864 421.472 80.952C421.472 81.04 421.472 81.14 421.472 81.252H416.732C416.756 81.708 416.86 82.088 417.044 82.392C417.236 82.688 417.472 82.912 417.752 83.064C418.04 83.216 418.344 83.292 418.664 83.292C419.08 83.292 419.428 83.196 419.708 83.004C419.988 82.812 420.192 82.552 420.32 82.224H421.316C421.156 82.776 420.848 83.236 420.392 83.604C419.944 83.964 419.368 84.144 418.664 84.144ZM418.664 78.756C418.184 78.756 417.756 78.904 417.38 79.2C417.012 79.488 416.8 79.912 416.744 80.472H420.488C420.464 79.936 420.28 79.516 419.936 79.212C419.592 78.908 419.168 78.756 418.664 78.756Z" fill="black"/>
<path d="M396.63 130V129.41C397.103 129.037 397.55 128.66 397.97 128.28C398.397 127.893 398.773 127.513 399.1 127.14C399.433 126.767 399.693 126.4 399.88 126.04C400.073 125.68 400.17 125.333 400.17 125C400.17 124.753 400.127 124.523 400.04 124.31C399.96 124.097 399.827 123.927 399.64 123.8C399.453 123.667 399.2 123.6 398.88 123.6C398.573 123.6 398.317 123.67 398.11 123.81C397.903 123.943 397.747 124.123 397.64 124.35C397.54 124.577 397.49 124.82 397.49 125.08H396.68C396.68 124.62 396.777 124.227 396.97 123.9C397.163 123.567 397.427 123.313 397.76 123.14C398.093 122.967 398.47 122.88 398.89 122.88C399.51 122.88 400.017 123.057 400.41 123.41C400.81 123.757 401.01 124.277 401.01 124.97C401.01 125.383 400.907 125.793 400.7 126.2C400.493 126.6 400.23 126.99 399.91 127.37C399.59 127.743 399.247 128.093 398.88 128.42C398.52 128.747 398.183 129.04 397.87 129.3H401.25V130H396.63ZM402.003 130.95L404.513 122.36H405.343L402.833 130.95H402.003ZM408.446 130.12C407.966 130.12 407.55 130.033 407.196 129.86C406.843 129.687 406.56 129.45 406.346 129.15C406.14 128.843 406.013 128.497 405.966 128.11H406.786C406.866 128.497 407.053 128.81 407.346 129.05C407.64 129.283 408.01 129.4 408.456 129.4C408.79 129.4 409.076 129.323 409.316 129.17C409.556 129.01 409.74 128.797 409.866 128.53C410 128.263 410.066 127.967 410.066 127.64C410.066 127.12 409.92 126.7 409.626 126.38C409.333 126.06 408.953 125.9 408.486 125.9C408.1 125.9 407.77 125.987 407.496 126.16C407.223 126.333 407.023 126.56 406.896 126.84H406.096L406.696 123H410.366V123.73H407.346L406.936 125.86C407.096 125.667 407.316 125.507 407.596 125.38C407.883 125.253 408.21 125.19 408.576 125.19C409.036 125.19 409.436 125.297 409.776 125.51C410.123 125.723 410.393 126.013 410.586 126.38C410.78 126.747 410.876 127.163 410.876 127.63C410.876 128.077 410.78 128.49 410.586 128.87C410.4 129.25 410.123 129.553 409.756 129.78C409.396 130.007 408.96 130.12 408.446 130.12ZM411.426 130.95L413.936 122.36H414.766L412.256 130.95H411.426ZM415.683 130V129.41C416.156 129.037 416.603 128.66 417.023 128.28C417.449 127.893 417.826 127.513 418.153 127.14C418.486 126.767 418.746 126.4 418.933 126.04C419.126 125.68 419.223 125.333 419.223 125C419.223 124.753 419.179 124.523 419.093 124.31C419.013 124.097 418.879 123.927 418.693 123.8C418.506 123.667 418.253 123.6 417.933 123.6C417.626 123.6 417.369 123.67 417.163 123.81C416.956 123.943 416.799 124.123 416.693 124.35C416.593 124.577 416.543 124.82 416.543 125.08H415.733C415.733 124.62 415.829 124.227 416.023 123.9C416.216 123.567 416.479 123.313 416.813 123.14C417.146 122.967 417.523 122.88 417.943 122.88C418.563 122.88 419.069 123.057 419.463 123.41C419.863 123.757 420.063 124.277 420.063 124.97C420.063 125.383 419.959 125.793 419.753 126.2C419.546 126.6 419.283 126.99 418.963 127.37C418.643 127.743 418.299 128.093 417.933 128.42C417.573 128.747 417.236 129.04 416.923 129.3H420.303V130H415.683ZM424.148 130.12C423.528 130.12 422.991 129.97 422.538 129.67C422.091 129.363 421.748 128.94 421.508 128.4C421.268 127.853 421.148 127.22 421.148 126.5C421.148 125.78 421.268 125.15 421.508 124.61C421.748 124.063 422.091 123.64 422.538 123.34C422.991 123.033 423.528 122.88 424.148 122.88C424.768 122.88 425.301 123.033 425.748 123.34C426.194 123.64 426.538 124.063 426.778 124.61C427.018 125.15 427.138 125.78 427.138 126.5C427.138 127.22 427.018 127.853 426.778 128.4C426.538 128.94 426.194 129.363 425.748 129.67C425.301 129.97 424.768 130.12 424.148 130.12ZM424.148 129.38C424.554 129.38 424.918 129.267 425.238 129.04C425.564 128.807 425.818 128.477 425.998 128.05C426.184 127.617 426.278 127.1 426.278 126.5C426.278 125.9 426.184 125.387 425.998 124.96C425.818 124.533 425.564 124.207 425.238 123.98C424.918 123.747 424.554 123.63 424.148 123.63C423.734 123.63 423.368 123.747 423.048 123.98C422.728 124.207 422.474 124.533 422.288 124.96C422.101 125.387 422.008 125.9 422.008 126.5C422.008 127.1 422.101 127.617 422.288 128.05C422.474 128.477 422.728 128.807 423.048 129.04C423.368 129.267 423.734 129.38 424.148 129.38ZM428.144 130V129.41C428.617 129.037 429.064 128.66 429.484 128.28C429.91 127.893 430.287 127.513 430.614 127.14C430.947 126.767 431.207 126.4 431.394 126.04C431.587 125.68 431.684 125.333 431.684 125C431.684 124.753 431.64 124.523 431.554 124.31C431.474 124.097 431.34 123.927 431.154 123.8C430.967 123.667 430.714 123.6 430.394 123.6C430.087 123.6 429.83 123.67 429.624 123.81C429.417 123.943 429.26 124.123 429.154 124.35C429.054 124.577 429.004 124.82 429.004 125.08H428.194C428.194 124.62 428.29 124.227 428.484 123.9C428.677 123.567 428.94 123.313 429.274 123.14C429.607 122.967 429.984 122.88 430.404 122.88C431.024 122.88 431.53 123.057 431.924 123.41C432.324 123.757 432.524 124.277 432.524 124.97C432.524 125.383 432.42 125.793 432.214 126.2C432.007 126.6 431.744 126.99 431.424 127.37C431.104 127.743 430.76 128.093 430.394 128.42C430.034 128.747 429.697 129.04 429.384 129.3H432.764V130H428.144ZM433.866 130V129.41C434.34 129.037 434.786 128.66 435.206 128.28C435.633 127.893 436.01 127.513 436.336 127.14C436.67 126.767 436.93 126.4 437.116 126.04C437.31 125.68 437.406 125.333 437.406 125C437.406 124.753 437.363 124.523 437.276 124.31C437.196 124.097 437.063 123.927 436.876 123.8C436.69 123.667 436.436 123.6 436.116 123.6C435.81 123.6 435.553 123.67 435.346 123.81C435.14 123.943 434.983 124.123 434.876 124.35C434.776 124.577 434.726 124.82 434.726 125.08H433.916C433.916 124.62 434.013 124.227 434.206 123.9C434.4 123.567 434.663 123.313 434.996 123.14C435.33 122.967 435.706 122.88 436.126 122.88C436.746 122.88 437.253 123.057 437.646 123.41C438.046 123.757 438.246 124.277 438.246 124.97C438.246 125.383 438.143 125.793 437.936 126.2C437.73 126.6 437.466 126.99 437.146 127.37C436.826 127.743 436.483 128.093 436.116 128.42C435.756 128.747 435.42 129.04 435.106 129.3H438.486V130H433.866Z" fill="black" fill-opacity="0.6"/>
<path d="M463.36 84L466.456 75.6H467.524L470.608 84H469.54L468.772 81.84H465.196L464.416 84H463.36ZM465.496 81.024H468.472L466.984 76.872L465.496 81.024ZM471.797 84V78.048H472.709L472.781 78.912C472.973 78.592 473.229 78.344 473.549 78.168C473.869 77.992 474.229 77.904 474.629 77.904C475.101 77.904 475.505 78 475.841 78.192C476.185 78.384 476.449 78.676 476.633 79.068C476.841 78.708 477.125 78.424 477.485 78.216C477.853 78.008 478.249 77.904 478.673 77.904C479.385 77.904 479.953 78.12 480.377 78.552C480.801 78.976 481.013 79.632 481.013 80.52V84H480.017V80.628C480.017 80.012 479.893 79.548 479.645 79.236C479.397 78.924 479.041 78.768 478.577 78.768C478.097 78.768 477.697 78.956 477.377 79.332C477.065 79.7 476.909 80.228 476.909 80.916V84H475.901V80.628C475.901 80.012 475.777 79.548 475.529 79.236C475.281 78.924 474.925 78.768 474.461 78.768C473.989 78.768 473.593 78.956 473.273 79.332C472.961 79.7 472.805 80.228 472.805 80.916V84H471.797ZM485.243 84.144C484.683 84.144 484.179 84.016 483.731 83.76C483.283 83.504 482.927 83.144 482.663 82.68C482.407 82.208 482.279 81.656 482.279 81.024C482.279 80.392 482.411 79.844 482.675 79.38C482.939 78.908 483.295 78.544 483.743 78.288C484.199 78.032 484.707 77.904 485.267 77.904C485.827 77.904 486.331 78.032 486.779 78.288C487.227 78.544 487.579 78.908 487.835 79.38C488.099 79.844 488.231 80.392 488.231 81.024C488.231 81.656 488.099 82.208 487.835 82.68C487.571 83.144 487.211 83.504 486.755 83.76C486.307 84.016 485.803 84.144 485.243 84.144ZM485.243 83.28C485.587 83.28 485.907 83.196 486.203 83.028C486.499 82.86 486.739 82.608 486.923 82.272C487.107 81.936 487.199 81.52 487.199 81.024C487.199 80.528 487.107 80.112 486.923 79.776C486.747 79.44 486.511 79.188 486.215 79.02C485.919 78.852 485.603 78.768 485.267 78.768C484.923 78.768 484.603 78.852 484.307 79.02C484.011 79.188 483.771 79.44 483.587 79.776C483.403 80.112 483.311 80.528 483.311 81.024C483.311 81.52 483.403 81.936 483.587 82.272C483.771 82.608 484.007 82.86 484.295 83.028C484.591 83.196 484.907 83.28 485.243 83.28ZM491.805 84.144C491.101 84.144 490.541 83.932 490.125 83.508C489.709 83.076 489.501 82.416 489.501 81.528V78.048H490.509V81.42C490.509 82.66 491.017 83.28 492.033 83.28C492.553 83.28 492.981 83.096 493.317 82.728C493.661 82.352 493.833 81.82 493.833 81.132V78.048H494.841V84H493.929L493.857 82.932C493.673 83.308 493.397 83.604 493.029 83.82C492.669 84.036 492.261 84.144 491.805 84.144ZM496.5 84V78.048H497.412L497.472 79.116C497.664 78.74 497.94 78.444 498.3 78.228C498.66 78.012 499.068 77.904 499.524 77.904C500.228 77.904 500.788 78.12 501.204 78.552C501.628 78.976 501.84 79.632 501.84 80.52V84H500.832V80.628C500.832 79.388 500.32 78.768 499.296 78.768C498.784 78.768 498.356 78.956 498.012 79.332C497.676 79.7 497.508 80.228 497.508 80.916V84H496.5ZM505.719 84C505.175 84 504.747 83.868 504.435 83.604C504.123 83.34 503.967 82.864 503.967 82.176V78.9H502.935V78.048H503.967L504.099 76.62H504.975V78.048H506.727V78.9H504.975V82.176C504.975 82.552 505.051 82.808 505.203 82.944C505.355 83.072 505.623 83.136 506.007 83.136H506.631V84H505.719Z" fill="black"/>
<path d="M465.56 130.87V130.1C464.907 130.027 464.39 129.793 464.01 129.4C463.63 129.007 463.44 128.507 463.44 127.9H464.32C464.32 128.253 464.423 128.57 464.63 128.85C464.843 129.123 465.153 129.3 465.56 129.38V126.67C465.513 126.657 465.463 126.643 465.41 126.63C465.363 126.61 465.317 126.593 465.27 126.58C464.73 126.393 464.33 126.163 464.07 125.89C463.81 125.61 463.68 125.247 463.68 124.8C463.673 124.28 463.837 123.847 464.17 123.5C464.51 123.153 464.973 122.953 465.56 122.9V122.09H466.25V122.9C466.81 122.967 467.257 123.177 467.59 123.53C467.923 123.883 468.093 124.313 468.1 124.82H467.22C467.22 124.573 467.14 124.337 466.98 124.11C466.82 123.877 466.577 123.72 466.25 123.64V126.06C466.303 126.073 466.357 126.09 466.41 126.11C466.463 126.13 466.52 126.147 466.58 126.16C466.913 126.28 467.213 126.42 467.48 126.58C467.747 126.74 467.953 126.947 468.1 127.2C468.253 127.453 468.33 127.777 468.33 128.17C468.33 128.483 468.253 128.78 468.1 129.06C467.947 129.34 467.713 129.577 467.4 129.77C467.093 129.963 466.71 130.077 466.25 130.11V130.87H465.56ZM464.55 124.72C464.55 125.027 464.64 125.26 464.82 125.42C465 125.573 465.247 125.707 465.56 125.82V123.62C465.26 123.667 465.017 123.787 464.83 123.98C464.643 124.167 464.55 124.413 464.55 124.72ZM467.46 128.22C467.46 127.833 467.347 127.547 467.12 127.36C466.893 127.173 466.603 127.02 466.25 126.9V129.4C466.637 129.353 466.933 129.22 467.14 129C467.353 128.78 467.46 128.52 467.46 128.22ZM470.211 130V123.94L469.081 124.19V123.61L470.491 123H471.061V130H470.211ZM474.919 130.12C474.439 130.12 474.022 130.033 473.669 129.86C473.315 129.687 473.032 129.45 472.819 129.15C472.612 128.843 472.485 128.497 472.439 128.11H473.259C473.339 128.497 473.525 128.81 473.819 129.05C474.112 129.283 474.482 129.4 474.929 129.4C475.262 129.4 475.549 129.323 475.789 129.17C476.029 129.01 476.212 128.797 476.339 128.53C476.472 128.263 476.539 127.967 476.539 127.64C476.539 127.12 476.392 126.7 476.099 126.38C475.805 126.06 475.425 125.9 474.959 125.9C474.572 125.9 474.242 125.987 473.969 126.16C473.695 126.333 473.495 126.56 473.369 126.84H472.569L473.169 123H476.839V123.73H473.819L473.409 125.86C473.569 125.667 473.789 125.507 474.069 125.38C474.355 125.253 474.682 125.19 475.049 125.19C475.509 125.19 475.909 125.297 476.249 125.51C476.595 125.723 476.865 126.013 477.059 126.38C477.252 126.747 477.349 127.163 477.349 127.63C477.349 128.077 477.252 128.49 477.059 128.87C476.872 129.25 476.595 129.553 476.229 129.78C475.869 130.007 475.432 130.12 474.919 130.12ZM481.392 130.12C480.772 130.12 480.235 129.97 479.782 129.67C479.335 129.363 478.992 128.94 478.752 128.4C478.512 127.853 478.392 127.22 478.392 126.5C478.392 125.78 478.512 125.15 478.752 124.61C478.992 124.063 479.335 123.64 479.782 123.34C480.235 123.033 480.772 122.88 481.392 122.88C482.012 122.88 482.545 123.033 482.992 123.34C483.439 123.64 483.782 124.063 484.022 124.61C484.262 125.15 484.382 125.78 484.382 126.5C484.382 127.22 484.262 127.853 484.022 128.4C483.782 128.94 483.439 129.363 482.992 129.67C482.545 129.97 482.012 130.12 481.392 130.12ZM481.392 129.38C481.799 129.38 482.162 129.267 482.482 129.04C482.809 128.807 483.062 128.477 483.242 128.05C483.429 127.617 483.522 127.1 483.522 126.5C483.522 125.9 483.429 125.387 483.242 124.96C483.062 124.533 482.809 124.207 482.482 123.98C482.162 123.747 481.799 123.63 481.392 123.63C480.979 123.63 480.612 123.747 480.292 123.98C479.972 124.207 479.719 124.533 479.532 124.96C479.345 125.387 479.252 125.9 479.252 126.5C479.252 127.1 479.345 127.617 479.532 128.05C479.719 128.477 479.972 128.807 480.292 129.04C480.612 129.267 480.979 129.38 481.392 129.38Z" fill="black" fill-opacity="0.6"/>
<path d="M535.564 84.144C534.948 84.144 534.412 84.032 533.956 83.808C533.5 83.584 533.148 83.272 532.9 82.872C532.652 82.472 532.528 82.008 532.528 81.48H533.584C533.584 81.808 533.66 82.112 533.812 82.392C533.964 82.664 534.184 82.884 534.472 83.052C534.768 83.212 535.132 83.292 535.564 83.292C536.132 83.292 536.572 83.156 536.884 82.884C537.196 82.612 537.352 82.272 537.352 81.864C537.352 81.528 537.28 81.26 537.136 81.06C536.992 80.852 536.796 80.684 536.548 80.556C536.308 80.428 536.028 80.316 535.708 80.22C535.396 80.124 535.068 80.016 534.724 79.896C534.076 79.672 533.596 79.396 533.284 79.068C532.972 78.732 532.816 78.296 532.816 77.76C532.808 77.312 532.912 76.916 533.128 76.572C533.344 76.22 533.648 75.948 534.04 75.756C534.44 75.556 534.912 75.456 535.456 75.456C535.992 75.456 536.456 75.556 536.848 75.756C537.248 75.956 537.556 76.232 537.772 76.584C537.996 76.936 538.112 77.336 538.12 77.784H537.064C537.064 77.552 537.004 77.324 536.884 77.1C536.764 76.868 536.58 76.68 536.332 76.536C536.092 76.392 535.788 76.32 535.42 76.32C534.964 76.312 534.588 76.428 534.292 76.668C534.004 76.908 533.86 77.24 533.86 77.664C533.86 78.024 533.96 78.3 534.16 78.492C534.368 78.684 534.656 78.844 535.024 78.972C535.392 79.092 535.816 79.232 536.296 79.392C536.696 79.536 537.056 79.704 537.376 79.896C537.696 80.088 537.944 80.336 538.12 80.64C538.304 80.944 538.396 81.332 538.396 81.804C538.396 82.204 538.292 82.584 538.084 82.944C537.876 83.296 537.56 83.584 537.136 83.808C536.72 84.032 536.196 84.144 535.564 84.144ZM542.118 84C541.574 84 541.146 83.868 540.834 83.604C540.522 83.34 540.366 82.864 540.366 82.176V78.9H539.333V78.048H540.366L540.498 76.62H541.374V78.048H543.126V78.9H541.374V82.176C541.374 82.552 541.45 82.808 541.602 82.944C541.754 83.072 542.022 83.136 542.406 83.136H543.03V84H542.118ZM546.386 84.144C545.89 84.144 545.478 84.06 545.15 83.892C544.822 83.724 544.578 83.5 544.418 83.22C544.258 82.94 544.178 82.636 544.178 82.308C544.178 81.7 544.41 81.232 544.874 80.904C545.338 80.576 545.97 80.412 546.77 80.412H548.378V80.34C548.378 79.82 548.242 79.428 547.97 79.164C547.698 78.892 547.334 78.756 546.878 78.756C546.486 78.756 546.146 78.856 545.858 79.056C545.578 79.248 545.402 79.532 545.33 79.908H544.298C544.338 79.476 544.482 79.112 544.73 78.816C544.986 78.52 545.302 78.296 545.678 78.144C546.054 77.984 546.454 77.904 546.878 77.904C547.71 77.904 548.334 78.128 548.75 78.576C549.174 79.016 549.386 79.604 549.386 80.34V84H548.486L548.426 82.932C548.258 83.268 548.01 83.556 547.682 83.796C547.362 84.028 546.93 84.144 546.386 84.144ZM546.542 83.292C546.926 83.292 547.254 83.192 547.526 82.992C547.806 82.792 548.018 82.532 548.162 82.212C548.306 81.892 548.378 81.556 548.378 81.204V81.192H546.854C546.262 81.192 545.842 81.296 545.594 81.504C545.354 81.704 545.234 81.956 545.234 82.26C545.234 82.572 545.346 82.824 545.57 83.016C545.802 83.2 546.126 83.292 546.542 83.292ZM553.086 84C552.542 84 552.114 83.868 551.802 83.604C551.49 83.34 551.334 82.864 551.334 82.176V78.9H550.302V78.048H551.334L551.466 76.62H552.342V78.048H554.094V78.9H552.342V82.176C552.342 82.552 552.418 82.808 552.57 82.944C552.722 83.072 552.99 83.136 553.374 83.136H553.998V84H553.086ZM557.547 84.144C556.843 84.144 556.283 83.932 555.867 83.508C555.451 83.076 555.243 82.416 555.243 81.528V78.048H556.251V81.42C556.251 82.66 556.759 83.28 557.775 83.28C558.295 83.28 558.723 83.096 559.059 82.728C559.403 82.352 559.575 81.82 559.575 81.132V78.048H560.583V84H559.671L559.599 82.932C559.415 83.308 559.139 83.604 558.771 83.82C558.411 84.036 558.003 84.144 557.547 84.144ZM564.522 84.144C563.81 84.144 563.218 83.964 562.746 83.604C562.274 83.244 561.998 82.756 561.918 82.14H562.95C563.014 82.452 563.178 82.724 563.442 82.956C563.714 83.18 564.078 83.292 564.534 83.292C564.958 83.292 565.27 83.204 565.47 83.028C565.67 82.844 565.77 82.628 565.77 82.38C565.77 82.02 565.638 81.78 565.374 81.66C565.118 81.54 564.754 81.432 564.282 81.336C563.962 81.272 563.642 81.18 563.322 81.06C563.002 80.94 562.734 80.772 562.518 80.556C562.302 80.332 562.194 80.04 562.194 79.68C562.194 79.16 562.386 78.736 562.77 78.408C563.162 78.072 563.69 77.904 564.354 77.904C564.986 77.904 565.502 78.064 565.902 78.384C566.31 78.696 566.546 79.144 566.61 79.728H565.614C565.574 79.424 565.442 79.188 565.218 79.02C565.002 78.844 564.71 78.756 564.342 78.756C563.982 78.756 563.702 78.832 563.502 78.984C563.31 79.136 563.214 79.336 563.214 79.584C563.214 79.824 563.338 80.012 563.586 80.148C563.842 80.284 564.186 80.4 564.618 80.496C564.986 80.576 565.334 80.676 565.662 80.796C565.998 80.908 566.27 81.08 566.478 81.312C566.694 81.536 566.802 81.864 566.802 82.296C566.81 82.832 566.606 83.276 566.19 83.628C565.782 83.972 565.226 84.144 564.522 84.144Z" fill="black"/>
<rect x="532" y="115" width="40" height="22" fill="#00EC97" fill-opacity="0.15"/>
<path d="M542.71 129V122H545.16C545.707 122 546.16 122.093 546.52 122.28C546.88 122.46 547.147 122.71 547.32 123.03C547.5 123.343 547.59 123.7 547.59 124.1C547.59 124.48 547.503 124.83 547.33 125.15C547.163 125.463 546.9 125.713 546.54 125.9C546.18 126.087 545.72 126.18 545.16 126.18H543.77V129H542.71ZM543.77 125.31H545.11C545.61 125.31 545.967 125.203 546.18 124.99C546.4 124.77 546.51 124.473 546.51 124.1C546.51 123.713 546.4 123.413 546.18 123.2C545.967 122.98 545.61 122.87 545.11 122.87H543.77V125.31ZM550.004 129.12C549.584 129.12 549.238 129.05 548.964 128.91C548.691 128.77 548.488 128.587 548.354 128.36C548.221 128.127 548.154 127.873 548.154 127.6C548.154 127.12 548.341 126.74 548.714 126.46C549.088 126.18 549.621 126.04 550.314 126.04H551.614V125.95C551.614 125.563 551.508 125.273 551.294 125.08C551.088 124.887 550.818 124.79 550.484 124.79C550.191 124.79 549.934 124.863 549.714 125.01C549.501 125.15 549.371 125.36 549.324 125.64H548.264C548.298 125.28 548.418 124.973 548.624 124.72C548.838 124.46 549.104 124.263 549.424 124.13C549.751 123.99 550.108 123.92 550.494 123.92C551.188 123.92 551.724 124.103 552.104 124.47C552.484 124.83 552.674 125.323 552.674 125.95V129H551.754L551.664 128.15C551.524 128.423 551.321 128.653 551.054 128.84C550.788 129.027 550.438 129.12 550.004 129.12ZM550.214 128.26C550.501 128.26 550.741 128.193 550.934 128.06C551.134 127.92 551.288 127.737 551.394 127.51C551.508 127.283 551.578 127.033 551.604 126.76H550.424C550.004 126.76 549.704 126.833 549.524 126.98C549.351 127.127 549.264 127.31 549.264 127.53C549.264 127.757 549.348 127.937 549.514 128.07C549.688 128.197 549.921 128.26 550.214 128.26ZM554.51 123.1C554.31 123.1 554.144 123.04 554.01 122.92C553.884 122.793 553.82 122.637 553.82 122.45C553.82 122.263 553.884 122.11 554.01 121.99C554.144 121.863 554.31 121.8 554.51 121.8C554.71 121.8 554.874 121.863 555 121.99C555.134 122.11 555.2 122.263 555.2 122.45C555.2 122.637 555.134 122.793 555 122.92C554.874 123.04 554.71 123.1 554.51 123.1ZM553.98 129V124.04H555.04V129H553.98ZM558.7 129.12C558.22 129.12 557.796 129.007 557.43 128.78C557.063 128.553 556.776 128.243 556.57 127.85C556.363 127.457 556.26 127.01 556.26 126.51C556.26 126.01 556.363 125.567 556.57 125.18C556.776 124.787 557.063 124.48 557.43 124.26C557.803 124.033 558.23 123.92 558.71 123.92C559.103 123.92 559.446 123.997 559.74 124.15C560.04 124.303 560.273 124.52 560.44 124.8V121.8H561.5V129H560.55L560.44 128.23C560.28 128.463 560.06 128.67 559.78 128.85C559.5 129.03 559.14 129.12 558.7 129.12ZM558.89 128.2C559.343 128.2 559.713 128.043 560 127.73C560.293 127.417 560.44 127.013 560.44 126.52C560.44 126.02 560.293 125.617 560 125.31C559.713 124.997 559.343 124.84 558.89 124.84C558.436 124.84 558.063 124.997 557.77 125.31C557.476 125.617 557.33 126.02 557.33 126.52C557.33 126.847 557.396 127.137 557.53 127.39C557.663 127.643 557.846 127.843 558.08 127.99C558.32 128.13 558.59 128.2 558.89 128.2Z" fill="#00EC97"/>
<path d="M175.74 177V170H176.58V177H175.74ZM178.014 177V172.04H178.774L178.824 172.93C178.984 172.617 179.214 172.37 179.514 172.19C179.814 172.01 180.154 171.92 180.534 171.92C181.121 171.92 181.588 172.1 181.934 172.46C182.288 172.813 182.464 173.36 182.464 174.1V177H181.624V174.19C181.624 173.157 181.198 172.64 180.344 172.64C179.918 172.64 179.561 172.797 179.274 173.11C178.994 173.417 178.854 173.857 178.854 174.43V177H178.014ZM185.697 177C185.244 177 184.887 176.89 184.627 176.67C184.367 176.45 184.237 176.053 184.237 175.48V172.75H183.377V172.04H184.237L184.347 170.85H185.077V172.04H186.537V172.75H185.077V175.48C185.077 175.793 185.14 176.007 185.267 176.12C185.394 176.227 185.617 176.28 185.937 176.28H186.457V177H185.697ZM189.697 177.12C189.224 177.12 188.804 177.013 188.437 176.8C188.071 176.58 187.781 176.277 187.567 175.89C187.361 175.503 187.257 175.047 187.257 174.52C187.257 174 187.361 173.547 187.567 173.16C187.774 172.767 188.061 172.463 188.427 172.25C188.801 172.03 189.231 171.92 189.717 171.92C190.197 171.92 190.611 172.03 190.957 172.25C191.311 172.463 191.581 172.747 191.767 173.1C191.954 173.453 192.047 173.833 192.047 174.24C192.047 174.313 192.044 174.387 192.037 174.46C192.037 174.533 192.037 174.617 192.037 174.71H188.087C188.107 175.09 188.194 175.407 188.347 175.66C188.507 175.907 188.704 176.093 188.937 176.22C189.177 176.347 189.431 176.41 189.697 176.41C190.044 176.41 190.334 176.33 190.567 176.17C190.801 176.01 190.971 175.793 191.077 175.52H191.907C191.774 175.98 191.517 176.363 191.137 176.67C190.764 176.97 190.284 177.12 189.697 177.12ZM189.697 172.63C189.297 172.63 188.941 172.753 188.627 173C188.321 173.24 188.144 173.593 188.097 174.06H191.217C191.197 173.613 191.044 173.263 190.757 173.01C190.471 172.757 190.117 172.63 189.697 172.63ZM193.161 177V172.04H193.921L193.991 172.99C194.144 172.663 194.377 172.403 194.691 172.21C195.004 172.017 195.391 171.92 195.851 171.92V172.8H195.621C195.327 172.8 195.057 172.853 194.811 172.96C194.564 173.06 194.367 173.233 194.221 173.48C194.074 173.727 194.001 174.067 194.001 174.5V177H193.161ZM196.794 177V172.04H197.554L197.604 172.93C197.764 172.617 197.994 172.37 198.294 172.19C198.594 172.01 198.934 171.92 199.314 171.92C199.9 171.92 200.367 172.1 200.714 172.46C201.067 172.813 201.244 173.36 201.244 174.1V177H200.404V174.19C200.404 173.157 199.977 172.64 199.124 172.64C198.697 172.64 198.34 172.797 198.054 173.11C197.774 173.417 197.634 173.857 197.634 174.43V177H196.794ZM204.746 177.12C204.273 177.12 203.853 177.013 203.486 176.8C203.12 176.58 202.83 176.277 202.616 175.89C202.41 175.503 202.306 175.047 202.306 174.52C202.306 174 202.41 173.547 202.616 173.16C202.823 172.767 203.11 172.463 203.476 172.25C203.85 172.03 204.28 171.92 204.766 171.92C205.246 171.92 205.66 172.03 206.006 172.25C206.36 172.463 206.63 172.747 206.816 173.1C207.003 173.453 207.096 173.833 207.096 174.24C207.096 174.313 207.093 174.387 207.086 174.46C207.086 174.533 207.086 174.617 207.086 174.71H203.136C203.156 175.09 203.243 175.407 203.396 175.66C203.556 175.907 203.753 176.093 203.986 176.22C204.226 176.347 204.48 176.41 204.746 176.41C205.093 176.41 205.383 176.33 205.616 176.17C205.85 176.01 206.02 175.793 206.126 175.52H206.956C206.823 175.98 206.566 176.363 206.186 176.67C205.813 176.97 205.333 177.12 204.746 177.12ZM204.746 172.63C204.346 172.63 203.99 172.753 203.676 173C203.37 173.24 203.193 173.593 203.146 174.06H206.266C206.246 173.613 206.093 173.263 205.806 173.01C205.52 172.757 205.166 172.63 204.746 172.63ZM210.004 177C209.55 177 209.194 176.89 208.934 176.67C208.674 176.45 208.544 176.053 208.544 175.48V172.75H207.684V172.04H208.544L208.654 170.85H209.384V172.04H210.844V172.75H209.384V175.48C209.384 175.793 209.447 176.007 209.574 176.12C209.7 176.227 209.924 176.28 210.244 176.28H210.764V177H210.004ZM214.607 177V170H217.067C217.561 170 217.967 170.08 218.287 170.24C218.614 170.393 218.857 170.607 219.017 170.88C219.177 171.147 219.257 171.447 219.257 171.78C219.257 172.233 219.134 172.59 218.887 172.85C218.647 173.11 218.357 173.29 218.017 173.39C218.277 173.437 218.514 173.54 218.727 173.7C218.941 173.86 219.107 174.06 219.227 174.3C219.354 174.54 219.417 174.803 219.417 175.09C219.417 175.443 219.331 175.767 219.157 176.06C218.984 176.347 218.727 176.577 218.387 176.75C218.047 176.917 217.634 177 217.147 177H214.607ZM215.447 173.06H217.007C217.454 173.06 217.797 172.957 218.037 172.75C218.277 172.537 218.397 172.243 218.397 171.87C218.397 171.517 218.277 171.233 218.037 171.02C217.804 170.807 217.451 170.7 216.977 170.7H215.447V173.06ZM215.447 176.3H217.057C217.537 176.3 217.907 176.19 218.167 175.97C218.427 175.743 218.557 175.43 218.557 175.03C218.557 174.637 218.421 174.323 218.147 174.09C217.874 173.85 217.504 173.73 217.037 173.73H215.447V176.3ZM221.083 170.94C220.916 170.94 220.776 170.887 220.663 170.78C220.556 170.667 220.503 170.527 220.503 170.36C220.503 170.2 220.556 170.067 220.663 169.96C220.776 169.853 220.916 169.8 221.083 169.8C221.243 169.8 221.379 169.853 221.493 169.96C221.606 170.067 221.663 170.2 221.663 170.36C221.663 170.527 221.606 170.667 221.493 170.78C221.379 170.887 221.243 170.94 221.083 170.94ZM220.663 177V172.04H221.503V177H220.663ZM222.965 177V169.8H223.805V177H222.965ZM225.182 177V169.8H226.022V177H225.182ZM230.805 177L231.235 175.03H229.815V174.28H231.395L231.735 172.65H230.235V171.91H231.895L232.315 169.94H233.115L232.695 171.91H234.845L235.265 169.94H236.055L235.635 171.91H237.025V172.65H235.475L235.135 174.28H236.585V175.03H234.975L234.545 177H233.745L234.175 175.03H232.025L231.605 177H230.805ZM232.185 174.28H234.335L234.685 172.65H232.535L232.185 174.28ZM240.886 177V170H243.346C243.84 170 244.246 170.08 244.566 170.24C244.893 170.393 245.136 170.607 245.296 170.88C245.456 171.147 245.536 171.447 245.536 171.78C245.536 172.233 245.413 172.59 245.166 172.85C244.926 173.11 244.636 173.29 244.296 173.39C244.556 173.437 244.793 173.54 245.006 173.7C245.22 173.86 245.386 174.06 245.506 174.3C245.633 174.54 245.696 174.803 245.696 175.09C245.696 175.443 245.61 175.767 245.436 176.06C245.263 176.347 245.006 176.577 244.666 176.75C244.326 176.917 243.913 177 243.426 177H240.886ZM241.726 173.06H243.286C243.733 173.06 244.076 172.957 244.316 172.75C244.556 172.537 244.676 172.243 244.676 171.87C244.676 171.517 244.556 171.233 244.316 171.02C244.083 170.807 243.73 170.7 243.256 170.7H241.726V173.06ZM241.726 176.3H243.336C243.816 176.3 244.186 176.19 244.446 175.97C244.706 175.743 244.836 175.43 244.836 175.03C244.836 174.637 244.7 174.323 244.426 174.09C244.153 173.85 243.783 173.73 243.316 173.73H241.726V176.3ZM246.752 174.45V173.74H250.712V174.45H246.752ZM252.719 177V170.94L251.589 171.19V170.61L252.999 170H253.569V177H252.719ZM257.227 177.12C256.78 177.12 256.377 177.04 256.017 176.88C255.657 176.713 255.367 176.467 255.147 176.14C254.933 175.813 254.82 175.407 254.807 174.92H255.657C255.663 175.32 255.803 175.667 256.077 175.96C256.35 176.247 256.733 176.39 257.227 176.39C257.72 176.39 258.09 176.253 258.337 175.98C258.59 175.707 258.717 175.377 258.717 174.99C258.717 174.663 258.637 174.397 258.477 174.19C258.323 173.983 258.113 173.83 257.847 173.73C257.587 173.63 257.3 173.58 256.987 173.58H256.467V172.87H256.987C257.44 172.87 257.793 172.767 258.047 172.56C258.307 172.353 258.437 172.063 258.437 171.69C258.437 171.377 258.333 171.12 258.127 170.92C257.927 170.713 257.627 170.61 257.227 170.61C256.84 170.61 256.53 170.727 256.297 170.96C256.063 171.187 255.933 171.473 255.907 171.82H255.057C255.077 171.44 255.177 171.103 255.357 170.81C255.543 170.517 255.797 170.29 256.117 170.13C256.437 169.963 256.807 169.88 257.227 169.88C257.68 169.88 258.057 169.96 258.357 170.12C258.663 170.28 258.893 170.493 259.047 170.76C259.207 171.027 259.287 171.32 259.287 171.64C259.287 171.993 259.19 172.317 258.997 172.61C258.803 172.897 258.513 173.09 258.127 173.19C258.54 173.277 258.883 173.473 259.157 173.78C259.43 174.087 259.567 174.49 259.567 174.99C259.567 175.377 259.477 175.733 259.297 176.06C259.123 176.38 258.863 176.637 258.517 176.83C258.17 177.023 257.74 177.12 257.227 177.12ZM263.306 177.12C262.826 177.12 262.409 177.033 262.056 176.86C261.702 176.687 261.419 176.45 261.206 176.15C260.999 175.843 260.872 175.497 260.826 175.11H261.646C261.726 175.497 261.912 175.81 262.206 176.05C262.499 176.283 262.869 176.4 263.316 176.4C263.649 176.4 263.936 176.323 264.176 176.17C264.416 176.01 264.599 175.797 264.726 175.53C264.859 175.263 264.926 174.967 264.926 174.64C264.926 174.12 264.779 173.7 264.486 173.38C264.192 173.06 263.812 172.9 263.346 172.9C262.959 172.9 262.629 172.987 262.356 173.16C262.082 173.333 261.882 173.56 261.756 173.84H260.956L261.556 170H265.226V170.73H262.206L261.796 172.86C261.956 172.667 262.176 172.507 262.456 172.38C262.742 172.253 263.069 172.19 263.436 172.19C263.896 172.19 264.296 172.297 264.636 172.51C264.982 172.723 265.252 173.013 265.446 173.38C265.639 173.747 265.736 174.163 265.736 174.63C265.736 175.077 265.639 175.49 265.446 175.87C265.259 176.25 264.982 176.553 264.616 176.78C264.256 177.007 263.819 177.12 263.306 177.12Z" fill="black" fill-opacity="0.6"/>
<path d="M396.63 177V176.41C397.103 176.037 397.55 175.66 397.97 175.28C398.397 174.893 398.773 174.513 399.1 174.14C399.433 173.767 399.693 173.4 399.88 173.04C400.073 172.68 400.17 172.333 400.17 172C400.17 171.753 400.127 171.523 400.04 171.31C399.96 171.097 399.827 170.927 399.64 170.8C399.453 170.667 399.2 170.6 398.88 170.6C398.573 170.6 398.317 170.67 398.11 170.81C397.903 170.943 397.747 171.123 397.64 171.35C397.54 171.577 397.49 171.82 397.49 172.08H396.68C396.68 171.62 396.777 171.227 396.97 170.9C397.163 170.567 397.427 170.313 397.76 170.14C398.093 169.967 398.47 169.88 398.89 169.88C399.51 169.88 400.017 170.057 400.41 170.41C400.81 170.757 401.01 171.277 401.01 171.97C401.01 172.383 400.907 172.793 400.7 173.2C400.493 173.6 400.23 173.99 399.91 174.37C399.59 174.743 399.247 175.093 398.88 175.42C398.52 175.747 398.183 176.04 397.87 176.3H401.25V177H396.63ZM402.003 177.95L404.513 169.36H405.343L402.833 177.95H402.003ZM408.446 177.12C407.966 177.12 407.55 177.033 407.196 176.86C406.843 176.687 406.56 176.45 406.346 176.15C406.14 175.843 406.013 175.497 405.966 175.11H406.786C406.866 175.497 407.053 175.81 407.346 176.05C407.64 176.283 408.01 176.4 408.456 176.4C408.79 176.4 409.076 176.323 409.316 176.17C409.556 176.01 409.74 175.797 409.866 175.53C410 175.263 410.066 174.967 410.066 174.64C410.066 174.12 409.92 173.7 409.626 173.38C409.333 173.06 408.953 172.9 408.486 172.9C408.1 172.9 407.77 172.987 407.496 173.16C407.223 173.333 407.023 173.56 406.896 173.84H406.096L406.696 170H410.366V170.73H407.346L406.936 172.86C407.096 172.667 407.316 172.507 407.596 172.38C407.883 172.253 408.21 172.19 408.576 172.19C409.036 172.19 409.436 172.297 409.776 172.51C410.123 172.723 410.393 173.013 410.586 173.38C410.78 173.747 410.876 174.163 410.876 174.63C410.876 175.077 410.78 175.49 410.586 175.87C410.4 176.25 410.123 176.553 409.756 176.78C409.396 177.007 408.96 177.12 408.446 177.12ZM411.426 177.95L413.936 169.36H414.766L412.256 177.95H411.426ZM415.683 177V176.41C416.156 176.037 416.603 175.66 417.023 175.28C417.449 174.893 417.826 174.513 418.153 174.14C418.486 173.767 418.746 173.4 418.933 173.04C419.126 172.68 419.223 172.333 419.223 172C419.223 171.753 419.179 171.523 419.093 171.31C419.013 171.097 418.879 170.927 418.693 170.8C418.506 170.667 418.253 170.6 417.933 170.6C417.626 170.6 417.369 170.67 417.163 170.81C416.956 170.943 416.799 171.123 416.693 171.35C416.593 171.577 416.543 171.82 416.543 172.08H415.733C415.733 171.62 415.829 171.227 416.023 170.9C416.216 170.567 416.479 170.313 416.813 170.14C417.146 169.967 417.523 169.88 417.943 169.88C418.563 169.88 419.069 170.057 419.463 170.41C419.863 170.757 420.063 171.277 420.063 171.97C420.063 172.383 419.959 172.793 419.753 173.2C419.546 173.6 419.283 173.99 418.963 174.37C418.643 174.743 418.299 175.093 417.933 175.42C417.573 175.747 417.236 176.04 416.923 176.3H420.303V177H415.683ZM424.148 177.12C423.528 177.12 422.991 176.97 422.538 176.67C422.091 176.363 421.748 175.94 421.508 175.4C421.268 174.853 421.148 174.22 421.148 173.5C421.148 172.78 421.268 172.15 421.508 171.61C421.748 171.063 422.091 170.64 422.538 170.34C422.991 170.033 423.528 169.88 424.148 169.88C424.768 169.88 425.301 170.033 425.748 170.34C426.194 170.64 426.538 171.063 426.778 171.61C427.018 172.15 427.138 172.78 427.138 173.5C427.138 174.22 427.018 174.853 426.778 175.4C426.538 175.94 426.194 176.363 425.748 176.67C425.301 176.97 424.768 177.12 424.148 177.12ZM424.148 176.38C424.554 176.38 424.918 176.267 425.238 176.04C425.564 175.807 425.818 175.477 425.998 175.05C426.184 174.617 426.278 174.1 426.278 173.5C426.278 172.9 426.184 172.387 425.998 171.96C425.818 171.533 425.564 171.207 425.238 170.98C424.918 170.747 424.554 170.63 424.148 170.63C423.734 170.63 423.368 170.747 423.048 170.98C422.728 171.207 422.474 171.533 422.288 171.96C422.101 172.387 422.008 172.9 422.008 173.5C422.008 174.1 422.101 174.617 422.288 175.05C422.474 175.477 422.728 175.807 423.048 176.04C423.368 176.267 423.734 176.38 424.148 176.38ZM428.144 177V176.41C428.617 176.037 429.064 175.66 429.484 175.28C429.91 174.893 430.287 174.513 430.614 174.14C430.947 173.767 431.207 173.4 431.394 173.04C431.587 172.68 431.684 172.333 431.684 172C431.684 171.753 431.64 171.523 431.554 171.31C431.474 171.097 431.34 170.927 431.154 170.8C430.967 170.667 430.714 170.6 430.394 170.6C430.087 170.6 429.83 170.67 429.624 170.81C429.417 170.943 429.26 171.123 429.154 171.35C429.054 171.577 429.004 171.82 429.004 172.08H428.194C428.194 171.62 428.29 171.227 428.484 170.9C428.677 170.567 428.94 170.313 429.274 170.14C429.607 169.967 429.984 169.88 430.404 169.88C431.024 169.88 431.53 170.057 431.924 170.41C432.324 170.757 432.524 171.277 432.524 171.97C432.524 172.383 432.42 172.793 432.214 173.2C432.007 173.6 431.744 173.99 431.424 174.37C431.104 174.743 430.76 175.093 430.394 175.42C430.034 175.747 429.697 176.04 429.384 176.3H432.764V177H428.144ZM433.866 177V176.41C434.34 176.037 434.786 175.66 435.206 175.28C435.633 174.893 436.01 174.513 436.336 174.14C436.67 173.767 436.93 173.4 437.116 173.04C437.31 172.68 437.406 172.333 437.406 172C437.406 171.753 437.363 171.523 437.276 171.31C437.196 171.097 437.063 170.927 436.876 170.8C436.69 170.667 436.436 170.6 436.116 170.6C435.81 170.6 435.553 170.67 435.346 170.81C435.14 170.943 434.983 171.123 434.876 171.35C434.776 171.577 434.726 171.82 434.726 172.08H433.916C433.916 171.62 434.013 171.227 434.206 170.9C434.4 170.567 434.663 170.313 434.996 170.14C435.33 169.967 435.706 169.88 436.126 169.88C436.746 169.88 437.253 170.057 437.646 170.41C438.046 170.757 438.246 171.277 438.246 171.97C438.246 172.383 438.143 172.793 437.936 173.2C437.73 173.6 437.466 173.99 437.146 174.37C436.826 174.743 436.483 175.093 436.116 175.42C435.756 175.747 435.42 176.04 435.106 176.3H438.486V177H433.866Z" fill="black" fill-opacity="0.6"/>
<path d="M465.56 177.87V177.1C464.907 177.027 464.39 176.793 464.01 176.4C463.63 176.007 463.44 175.507 463.44 174.9H464.32C464.32 175.253 464.423 175.57 464.63 175.85C464.843 176.123 465.153 176.3 465.56 176.38V173.67C465.513 173.657 465.463 173.643 465.41 173.63C465.363 173.61 465.317 173.593 465.27 173.58C464.73 173.393 464.33 173.163 464.07 172.89C463.81 172.61 463.68 172.247 463.68 171.8C463.673 171.28 463.837 170.847 464.17 170.5C464.51 170.153 464.973 169.953 465.56 169.9V169.09H466.25V169.9C466.81 169.967 467.257 170.177 467.59 170.53C467.923 170.883 468.093 171.313 468.1 171.82H467.22C467.22 171.573 467.14 171.337 466.98 171.11C466.82 170.877 466.577 170.72 466.25 170.64V173.06C466.303 173.073 466.357 173.09 466.41 173.11C466.463 173.13 466.52 173.147 466.58 173.16C466.913 173.28 467.213 173.42 467.48 173.58C467.747 173.74 467.953 173.947 468.1 174.2C468.253 174.453 468.33 174.777 468.33 175.17C468.33 175.483 468.253 175.78 468.1 176.06C467.947 176.34 467.713 176.577 467.4 176.77C467.093 176.963 466.71 177.077 466.25 177.11V177.87H465.56ZM464.55 171.72C464.55 172.027 464.64 172.26 464.82 172.42C465 172.573 465.247 172.707 465.56 172.82V170.62C465.26 170.667 465.017 170.787 464.83 170.98C464.643 171.167 464.55 171.413 464.55 171.72ZM467.46 175.22C467.46 174.833 467.347 174.547 467.12 174.36C466.893 174.173 466.603 174.02 466.25 173.9V176.4C466.637 176.353 466.933 176.22 467.14 176C467.353 175.78 467.46 175.52 467.46 175.22ZM469.411 177V176.41C469.885 176.037 470.331 175.66 470.751 175.28C471.178 174.893 471.555 174.513 471.881 174.14C472.215 173.767 472.475 173.4 472.661 173.04C472.855 172.68 472.951 172.333 472.951 172C472.951 171.753 472.908 171.523 472.821 171.31C472.741 171.097 472.608 170.927 472.421 170.8C472.235 170.667 471.981 170.6 471.661 170.6C471.355 170.6 471.098 170.67 470.891 170.81C470.685 170.943 470.528 171.123 470.421 171.35C470.321 171.577 470.271 171.82 470.271 172.08H469.461C469.461 171.62 469.558 171.227 469.751 170.9C469.945 170.567 470.208 170.313 470.541 170.14C470.875 169.967 471.251 169.88 471.671 169.88C472.291 169.88 472.798 170.057 473.191 170.41C473.591 170.757 473.791 171.277 473.791 171.97C473.791 172.383 473.688 172.793 473.481 173.2C473.275 173.6 473.011 173.99 472.691 174.37C472.371 174.743 472.028 175.093 471.661 175.42C471.301 175.747 470.965 176.04 470.651 176.3H474.031V177H469.411ZM478.248 177V175.5H474.698V174.85L478.098 170H479.078V174.76H480.118V175.5H479.078V177H478.248ZM475.628 174.76H478.288V170.93L475.628 174.76ZM483.863 177.12C483.243 177.12 482.706 176.97 482.253 176.67C481.806 176.363 481.463 175.94 481.223 175.4C480.983 174.853 480.863 174.22 480.863 173.5C480.863 172.78 480.983 172.15 481.223 171.61C481.463 171.063 481.806 170.64 482.253 170.34C482.706 170.033 483.243 169.88 483.863 169.88C484.483 169.88 485.016 170.033 485.463 170.34C485.909 170.64 486.253 171.063 486.493 171.61C486.733 172.15 486.853 172.78 486.853 173.5C486.853 174.22 486.733 174.853 486.493 175.4C486.253 175.94 485.909 176.363 485.463 176.67C485.016 176.97 484.483 177.12 483.863 177.12ZM483.863 176.38C484.269 176.38 484.633 176.267 484.953 176.04C485.279 175.807 485.533 175.477 485.713 175.05C485.899 174.617 485.993 174.1 485.993 173.5C485.993 172.9 485.899 172.387 485.713 171.96C485.533 171.533 485.279 171.207 484.953 170.98C484.633 170.747 484.269 170.63 483.863 170.63C483.449 170.63 483.083 170.747 482.763 170.98C482.443 171.207 482.189 171.533 482.003 171.96C481.816 172.387 481.723 172.9 481.723 173.5C481.723 174.1 481.816 174.617 482.003 175.05C482.189 175.477 482.443 175.807 482.763 176.04C483.083 176.267 483.449 176.38 483.863 176.38Z" fill="black" fill-opacity="0.6"/>
<rect x="532" y="162" width="40" height="22" fill="#00EC97" fill-opacity="0.15"/>
<path d="M542.71 176V169H545.16C545.707 169 546.16 169.093 546.52 169.28C546.88 169.46 547.147 169.71 547.32 170.03C547.5 170.343 547.59 170.7 547.59 171.1C547.59 171.48 547.503 171.83 547.33 172.15C547.163 172.463 546.9 172.713 546.54 172.9C546.18 173.087 545.72 173.18 545.16 173.18H543.77V176H542.71ZM543.77 172.31H545.11C545.61 172.31 545.967 172.203 546.18 171.99C546.4 171.77 546.51 171.473 546.51 171.1C546.51 170.713 546.4 170.413 546.18 170.2C545.967 169.98 545.61 169.87 545.11 169.87H543.77V172.31ZM550.004 176.12C549.584 176.12 549.238 176.05 548.964 175.91C548.691 175.77 548.488 175.587 548.354 175.36C548.221 175.127 548.154 174.873 548.154 174.6C548.154 174.12 548.341 173.74 548.714 173.46C549.088 173.18 549.621 173.04 550.314 173.04H551.614V172.95C551.614 172.563 551.508 172.273 551.294 172.08C551.088 171.887 550.818 171.79 550.484 171.79C550.191 171.79 549.934 171.863 549.714 172.01C549.501 172.15 549.371 172.36 549.324 172.64H548.264C548.298 172.28 548.418 171.973 548.624 171.72C548.838 171.46 549.104 171.263 549.424 171.13C549.751 170.99 550.108 170.92 550.494 170.92C551.188 170.92 551.724 171.103 552.104 171.47C552.484 171.83 552.674 172.323 552.674 172.95V176H551.754L551.664 175.15C551.524 175.423 551.321 175.653 551.054 175.84C550.788 176.027 550.438 176.12 550.004 176.12ZM550.214 175.26C550.501 175.26 550.741 175.193 550.934 175.06C551.134 174.92 551.288 174.737 551.394 174.51C551.508 174.283 551.578 174.033 551.604 173.76H550.424C550.004 173.76 549.704 173.833 549.524 173.98C549.351 174.127 549.264 174.31 549.264 174.53C549.264 174.757 549.348 174.937 549.514 175.07C549.688 175.197 549.921 175.26 550.214 175.26ZM554.51 170.1C554.31 170.1 554.144 170.04 554.01 169.92C553.884 169.793 553.82 169.637 553.82 169.45C553.82 169.263 553.884 169.11 554.01 168.99C554.144 168.863 554.31 168.8 554.51 168.8C554.71 168.8 554.874 168.863 555 168.99C555.134 169.11 555.2 169.263 555.2 169.45C555.2 169.637 555.134 169.793 555 169.92C554.874 170.04 554.71 170.1 554.51 170.1ZM553.98 176V171.04H555.04V176H553.98ZM558.7 176.12C558.22 176.12 557.796 176.007 557.43 175.78C557.063 175.553 556.776 175.243 556.57 174.85C556.363 174.457 556.26 174.01 556.26 173.51C556.26 173.01 556.363 172.567 556.57 172.18C556.776 171.787 557.063 171.48 557.43 171.26C557.803 171.033 558.23 170.92 558.71 170.92C559.103 170.92 559.446 170.997 559.74 171.15C560.04 171.303 560.273 171.52 560.44 171.8V168.8H561.5V176H560.55L560.44 175.23C560.28 175.463 560.06 175.67 559.78 175.85C559.5 176.03 559.14 176.12 558.7 176.12ZM558.89 175.2C559.343 175.2 559.713 175.043 560 174.73C560.293 174.417 560.44 174.013 560.44 173.52C560.44 173.02 560.293 172.617 560 172.31C559.713 171.997 559.343 171.84 558.89 171.84C558.436 171.84 558.063 171.997 557.77 172.31C557.476 172.617 557.33 173.02 557.33 173.52C557.33 173.847 557.396 174.137 557.53 174.39C557.663 174.643 557.846 174.843 558.08 174.99C558.32 175.13 558.59 175.2 558.89 175.2Z" fill="#00EC97"/>
<path d="M175.74 225V218H176.58V225H175.74ZM178.014 225V220.04H178.774L178.824 220.93C178.984 220.617 179.214 220.37 179.514 220.19C179.814 220.01 180.154 219.92 180.534 219.92C181.121 219.92 181.588 220.1 181.934 220.46C182.288 220.813 182.464 221.36 182.464 222.1V225H181.624V222.19C181.624 221.157 181.198 220.64 180.344 220.64C179.918 220.64 179.561 220.797 179.274 221.11C178.994 221.417 178.854 221.857 178.854 222.43V225H178.014ZM185.697 225C185.244 225 184.887 224.89 184.627 224.67C184.367 224.45 184.237 224.053 184.237 223.48V220.75H183.377V220.04H184.237L184.347 218.85H185.077V220.04H186.537V220.75H185.077V223.48C185.077 223.793 185.14 224.007 185.267 224.12C185.394 224.227 185.617 224.28 185.937 224.28H186.457V225H185.697ZM189.697 225.12C189.224 225.12 188.804 225.013 188.437 224.8C188.071 224.58 187.781 224.277 187.567 223.89C187.361 223.503 187.257 223.047 187.257 222.52C187.257 222 187.361 221.547 187.567 221.16C187.774 220.767 188.061 220.463 188.427 220.25C188.801 220.03 189.231 219.92 189.717 219.92C190.197 219.92 190.611 220.03 190.957 220.25C191.311 220.463 191.581 220.747 191.767 221.1C191.954 221.453 192.047 221.833 192.047 222.24C192.047 222.313 192.044 222.387 192.037 222.46C192.037 222.533 192.037 222.617 192.037 222.71H188.087C188.107 223.09 188.194 223.407 188.347 223.66C188.507 223.907 188.704 224.093 188.937 224.22C189.177 224.347 189.431 224.41 189.697 224.41C190.044 224.41 190.334 224.33 190.567 224.17C190.801 224.01 190.971 223.793 191.077 223.52H191.907C191.774 223.98 191.517 224.363 191.137 224.67C190.764 224.97 190.284 225.12 189.697 225.12ZM189.697 220.63C189.297 220.63 188.941 220.753 188.627 221C188.321 221.24 188.144 221.593 188.097 222.06H191.217C191.197 221.613 191.044 221.263 190.757 221.01C190.471 220.757 190.117 220.63 189.697 220.63ZM193.161 225V220.04H193.921L193.991 220.99C194.144 220.663 194.377 220.403 194.691 220.21C195.004 220.017 195.391 219.92 195.851 219.92V220.8H195.621C195.327 220.8 195.057 220.853 194.811 220.96C194.564 221.06 194.367 221.233 194.221 221.48C194.074 221.727 194.001 222.067 194.001 222.5V225H193.161ZM196.794 225V220.04H197.554L197.604 220.93C197.764 220.617 197.994 220.37 198.294 220.19C198.594 220.01 198.934 219.92 199.314 219.92C199.9 219.92 200.367 220.1 200.714 220.46C201.067 220.813 201.244 221.36 201.244 222.1V225H200.404V222.19C200.404 221.157 199.977 220.64 199.124 220.64C198.697 220.64 198.34 220.797 198.054 221.11C197.774 221.417 197.634 221.857 197.634 222.43V225H196.794ZM204.746 225.12C204.273 225.12 203.853 225.013 203.486 224.8C203.12 224.58 202.83 224.277 202.616 223.89C202.41 223.503 202.306 223.047 202.306 222.52C202.306 222 202.41 221.547 202.616 221.16C202.823 220.767 203.11 220.463 203.476 220.25C203.85 220.03 204.28 219.92 204.766 219.92C205.246 219.92 205.66 220.03 206.006 220.25C206.36 220.463 206.63 220.747 206.816 221.1C207.003 221.453 207.096 221.833 207.096 222.24C207.096 222.313 207.093 222.387 207.086 222.46C207.086 222.533 207.086 222.617 207.086 222.71H203.136C203.156 223.09 203.243 223.407 203.396 223.66C203.556 223.907 203.753 224.093 203.986 224.22C204.226 224.347 204.48 224.41 204.746 224.41C205.093 224.41 205.383 224.33 205.616 224.17C205.85 224.01 206.02 223.793 206.126 223.52H206.956C206.823 223.98 206.566 224.363 206.186 224.67C205.813 224.97 205.333 225.12 204.746 225.12ZM204.746 220.63C204.346 220.63 203.99 220.753 203.676 221C203.37 221.24 203.193 221.593 203.146 222.06H206.266C206.246 221.613 206.093 221.263 205.806 221.01C205.52 220.757 205.166 220.63 204.746 220.63ZM210.004 225C209.55 225 209.194 224.89 208.934 224.67C208.674 224.45 208.544 224.053 208.544 223.48V220.75H207.684V220.04H208.544L208.654 218.85H209.384V220.04H210.844V220.75H209.384V223.48C209.384 223.793 209.447 224.007 209.574 224.12C209.7 224.227 209.924 224.28 210.244 224.28H210.764V225H210.004ZM214.607 225V218H217.067C217.561 218 217.967 218.08 218.287 218.24C218.614 218.393 218.857 218.607 219.017 218.88C219.177 219.147 219.257 219.447 219.257 219.78C219.257 220.233 219.134 220.59 218.887 220.85C218.647 221.11 218.357 221.29 218.017 221.39C218.277 221.437 218.514 221.54 218.727 221.7C218.941 221.86 219.107 222.06 219.227 222.3C219.354 222.54 219.417 222.803 219.417 223.09C219.417 223.443 219.331 223.767 219.157 224.06C218.984 224.347 218.727 224.577 218.387 224.75C218.047 224.917 217.634 225 217.147 225H214.607ZM215.447 221.06H217.007C217.454 221.06 217.797 220.957 218.037 220.75C218.277 220.537 218.397 220.243 218.397 219.87C218.397 219.517 218.277 219.233 218.037 219.02C217.804 218.807 217.451 218.7 216.977 218.7H215.447V221.06ZM215.447 224.3H217.057C217.537 224.3 217.907 224.19 218.167 223.97C218.427 223.743 218.557 223.43 218.557 223.03C218.557 222.637 218.421 222.323 218.147 222.09C217.874 221.85 217.504 221.73 217.037 221.73H215.447V224.3ZM221.083 218.94C220.916 218.94 220.776 218.887 220.663 218.78C220.556 218.667 220.503 218.527 220.503 218.36C220.503 218.2 220.556 218.067 220.663 217.96C220.776 217.853 220.916 217.8 221.083 217.8C221.243 217.8 221.379 217.853 221.493 217.96C221.606 218.067 221.663 218.2 221.663 218.36C221.663 218.527 221.606 218.667 221.493 218.78C221.379 218.887 221.243 218.94 221.083 218.94ZM220.663 225V220.04H221.503V225H220.663ZM222.965 225V217.8H223.805V225H222.965ZM225.182 225V217.8H226.022V225H225.182ZM230.805 225L231.235 223.03H229.815V222.28H231.395L231.735 220.65H230.235V219.91H231.895L232.315 217.94H233.115L232.695 219.91H234.845L235.265 217.94H236.055L235.635 219.91H237.025V220.65H235.475L235.135 222.28H236.585V223.03H234.975L234.545 225H233.745L234.175 223.03H232.025L231.605 225H230.805ZM232.185 222.28H234.335L234.685 220.65H232.535L232.185 222.28ZM243.956 225.12C243.27 225.12 242.676 224.97 242.176 224.67C241.683 224.363 241.3 223.94 241.026 223.4C240.753 222.853 240.616 222.22 240.616 221.5C240.616 220.787 240.753 220.16 241.026 219.62C241.3 219.073 241.683 218.647 242.176 218.34C242.676 218.033 243.27 217.88 243.956 217.88C244.756 217.88 245.406 218.073 245.906 218.46C246.413 218.84 246.736 219.373 246.876 220.06H245.946C245.84 219.627 245.62 219.28 245.286 219.02C244.96 218.753 244.516 218.62 243.956 218.62C243.456 218.62 243.02 218.737 242.646 218.97C242.273 219.197 241.983 219.527 241.776 219.96C241.576 220.387 241.476 220.9 241.476 221.5C241.476 222.1 241.576 222.617 241.776 223.05C241.983 223.477 242.273 223.807 242.646 224.04C243.02 224.267 243.456 224.38 243.956 224.38C244.516 224.38 244.96 224.253 245.286 224C245.62 223.74 245.84 223.397 245.946 222.97H246.876C246.736 223.643 246.413 224.17 245.906 224.55C245.406 224.93 244.756 225.12 243.956 225.12ZM247.934 222.45V221.74H251.894V222.45H247.934ZM255.731 225.12C255.224 225.12 254.797 225.027 254.451 224.84C254.104 224.647 253.824 224.39 253.611 224.07C253.404 223.75 253.251 223.393 253.151 223C253.057 222.6 253.011 222.193 253.011 221.78C253.011 221.007 253.117 220.33 253.331 219.75C253.544 219.163 253.851 218.707 254.251 218.38C254.657 218.047 255.147 217.88 255.721 217.88C256.161 217.88 256.537 217.967 256.851 218.14C257.164 218.313 257.411 218.547 257.591 218.84C257.777 219.127 257.894 219.447 257.941 219.8H257.161C257.087 219.42 256.924 219.127 256.671 218.92C256.417 218.713 256.097 218.61 255.711 218.61C255.184 218.61 254.741 218.86 254.381 219.36C254.027 219.853 253.837 220.627 253.811 221.68C253.971 221.367 254.224 221.097 254.571 220.87C254.924 220.637 255.347 220.52 255.841 220.52C256.241 220.52 256.614 220.613 256.961 220.8C257.314 220.987 257.601 221.25 257.821 221.59C258.041 221.923 258.151 222.317 258.151 222.77C258.151 223.163 258.054 223.54 257.861 223.9C257.667 224.26 257.387 224.553 257.021 224.78C256.661 225.007 256.231 225.12 255.731 225.12ZM255.671 224.38C255.984 224.38 256.264 224.313 256.511 224.18C256.757 224.047 256.951 223.863 257.091 223.63C257.231 223.39 257.301 223.117 257.301 222.81C257.301 222.337 257.144 221.96 256.831 221.68C256.524 221.393 256.137 221.25 255.671 221.25C255.357 221.25 255.077 221.323 254.831 221.47C254.584 221.61 254.387 221.8 254.241 222.04C254.101 222.28 254.031 222.54 254.031 222.82C254.031 223.12 254.101 223.39 254.241 223.63C254.387 223.863 254.584 224.047 254.831 224.18C255.077 224.313 255.357 224.38 255.671 224.38ZM262.68 225V223.5H259.13V222.85L262.53 218H263.51V222.76H264.55V223.5H263.51V225H262.68ZM260.06 222.76H262.72V218.93L260.06 222.76ZM267.874 225.12C267.414 225.12 267.001 225.037 266.634 224.87C266.268 224.697 265.978 224.46 265.764 224.16C265.558 223.853 265.454 223.5 265.454 223.1C265.454 222.673 265.578 222.29 265.824 221.95C266.078 221.61 266.411 221.383 266.824 221.27C266.444 221.143 266.151 220.94 265.944 220.66C265.738 220.38 265.634 220.073 265.634 219.74C265.634 219.4 265.724 219.09 265.904 218.81C266.084 218.523 266.341 218.297 266.674 218.13C267.008 217.963 267.408 217.88 267.874 217.88C268.341 217.88 268.741 217.963 269.074 218.13C269.408 218.297 269.664 218.523 269.844 218.81C270.024 219.09 270.114 219.4 270.114 219.74C270.114 220.067 270.011 220.373 269.804 220.66C269.598 220.94 269.304 221.143 268.924 221.27C269.338 221.383 269.668 221.61 269.914 221.95C270.168 222.29 270.294 222.673 270.294 223.1C270.294 223.5 270.188 223.853 269.974 224.16C269.768 224.46 269.481 224.697 269.114 224.87C268.748 225.037 268.334 225.12 267.874 225.12ZM267.874 220.97C268.301 220.97 268.638 220.863 268.884 220.65C269.138 220.43 269.264 220.143 269.264 219.79C269.264 219.397 269.141 219.1 268.894 218.9C268.648 218.7 268.308 218.6 267.874 218.6C267.441 218.6 267.101 218.7 266.854 218.9C266.614 219.1 266.494 219.397 266.494 219.79C266.494 220.143 266.618 220.43 266.864 220.65C267.111 220.863 267.448 220.97 267.874 220.97ZM267.874 224.38C268.401 224.38 268.794 224.26 269.054 224.02C269.321 223.773 269.454 223.45 269.454 223.05C269.454 222.597 269.311 222.253 269.024 222.02C268.738 221.787 268.354 221.67 267.874 221.67C267.394 221.67 267.011 221.787 266.724 222.02C266.438 222.253 266.294 222.597 266.294 223.05C266.294 223.45 266.424 223.773 266.684 224.02C266.951 224.26 267.348 224.38 267.874 224.38Z" fill="black" fill-opacity="0.6"/>
<path d="M396.63 225V224.41C397.103 224.037 397.55 223.66 397.97 223.28C398.397 222.893 398.773 222.513 399.1 222.14C399.433 221.767 399.693 221.4 399.88 221.04C400.073 220.68 400.17 220.333 400.17 220C400.17 219.753 400.127 219.523 400.04 219.31C399.96 219.097 399.827 218.927 399.64 218.8C399.453 218.667 399.2 218.6 398.88 218.6C398.573 218.6 398.317 218.67 398.11 218.81C397.903 218.943 397.747 219.123 397.64 219.35C397.54 219.577 397.49 219.82 397.49 220.08H396.68C396.68 219.62 396.777 219.227 396.97 218.9C397.163 218.567 397.427 218.313 397.76 218.14C398.093 217.967 398.47 217.88 398.89 217.88C399.51 217.88 400.017 218.057 400.41 218.41C400.81 218.757 401.01 219.277 401.01 219.97C401.01 220.383 400.907 220.793 400.7 221.2C400.493 221.6 400.23 221.99 399.91 222.37C399.59 222.743 399.247 223.093 398.88 223.42C398.52 223.747 398.183 224.04 397.87 224.3H401.25V225H396.63ZM402.003 225.95L404.513 217.36H405.343L402.833 225.95H402.003ZM408.446 225.12C407.966 225.12 407.55 225.033 407.196 224.86C406.843 224.687 406.56 224.45 406.346 224.15C406.14 223.843 406.013 223.497 405.966 223.11H406.786C406.866 223.497 407.053 223.81 407.346 224.05C407.64 224.283 408.01 224.4 408.456 224.4C408.79 224.4 409.076 224.323 409.316 224.17C409.556 224.01 409.74 223.797 409.866 223.53C410 223.263 410.066 222.967 410.066 222.64C410.066 222.12 409.92 221.7 409.626 221.38C409.333 221.06 408.953 220.9 408.486 220.9C408.1 220.9 407.77 220.987 407.496 221.16C407.223 221.333 407.023 221.56 406.896 221.84H406.096L406.696 218H410.366V218.73H407.346L406.936 220.86C407.096 220.667 407.316 220.507 407.596 220.38C407.883 220.253 408.21 220.19 408.576 220.19C409.036 220.19 409.436 220.297 409.776 220.51C410.123 220.723 410.393 221.013 410.586 221.38C410.78 221.747 410.876 222.163 410.876 222.63C410.876 223.077 410.78 223.49 410.586 223.87C410.4 224.25 410.123 224.553 409.756 224.78C409.396 225.007 408.96 225.12 408.446 225.12ZM411.426 225.95L413.936 217.36H414.766L412.256 225.95H411.426ZM415.683 225V224.41C416.156 224.037 416.603 223.66 417.023 223.28C417.449 222.893 417.826 222.513 418.153 222.14C418.486 221.767 418.746 221.4 418.933 221.04C419.126 220.68 419.223 220.333 419.223 220C419.223 219.753 419.179 219.523 419.093 219.31C419.013 219.097 418.879 218.927 418.693 218.8C418.506 218.667 418.253 218.6 417.933 218.6C417.626 218.6 417.369 218.67 417.163 218.81C416.956 218.943 416.799 219.123 416.693 219.35C416.593 219.577 416.543 219.82 416.543 220.08H415.733C415.733 219.62 415.829 219.227 416.023 218.9C416.216 218.567 416.479 218.313 416.813 218.14C417.146 217.967 417.523 217.88 417.943 217.88C418.563 217.88 419.069 218.057 419.463 218.41C419.863 218.757 420.063 219.277 420.063 219.97C420.063 220.383 419.959 220.793 419.753 221.2C419.546 221.6 419.283 221.99 418.963 222.37C418.643 222.743 418.299 223.093 417.933 223.42C417.573 223.747 417.236 224.04 416.923 224.3H420.303V225H415.683ZM424.148 225.12C423.528 225.12 422.991 224.97 422.538 224.67C422.091 224.363 421.748 223.94 421.508 223.4C421.268 222.853 421.148 222.22 421.148 221.5C421.148 220.78 421.268 220.15 421.508 219.61C421.748 219.063 422.091 218.64 422.538 218.34C422.991 218.033 423.528 217.88 424.148 217.88C424.768 217.88 425.301 218.033 425.748 218.34C426.194 218.64 426.538 219.063 426.778 219.61C427.018 220.15 427.138 220.78 427.138 221.5C427.138 222.22 427.018 222.853 426.778 223.4C426.538 223.94 426.194 224.363 425.748 224.67C425.301 224.97 424.768 225.12 424.148 225.12ZM424.148 224.38C424.554 224.38 424.918 224.267 425.238 224.04C425.564 223.807 425.818 223.477 425.998 223.05C426.184 222.617 426.278 222.1 426.278 221.5C426.278 220.9 426.184 220.387 425.998 219.96C425.818 219.533 425.564 219.207 425.238 218.98C424.918 218.747 424.554 218.63 424.148 218.63C423.734 218.63 423.368 218.747 423.048 218.98C422.728 219.207 422.474 219.533 422.288 219.96C422.101 220.387 422.008 220.9 422.008 221.5C422.008 222.1 422.101 222.617 422.288 223.05C422.474 223.477 422.728 223.807 423.048 224.04C423.368 224.267 423.734 224.38 424.148 224.38ZM428.144 225V224.41C428.617 224.037 429.064 223.66 429.484 223.28C429.91 222.893 430.287 222.513 430.614 222.14C430.947 221.767 431.207 221.4 431.394 221.04C431.587 220.68 431.684 220.333 431.684 220C431.684 219.753 431.64 219.523 431.554 219.31C431.474 219.097 431.34 218.927 431.154 218.8C430.967 218.667 430.714 218.6 430.394 218.6C430.087 218.6 429.83 218.67 429.624 218.81C429.417 218.943 429.26 219.123 429.154 219.35C429.054 219.577 429.004 219.82 429.004 220.08H428.194C428.194 219.62 428.29 219.227 428.484 218.9C428.677 218.567 428.94 218.313 429.274 218.14C429.607 217.967 429.984 217.88 430.404 217.88C431.024 217.88 431.53 218.057 431.924 218.41C432.324 218.757 432.524 219.277 432.524 219.97C432.524 220.383 432.42 220.793 432.214 221.2C432.007 221.6 431.744 221.99 431.424 222.37C431.104 222.743 430.76 223.093 430.394 223.42C430.034 223.747 429.697 224.04 429.384 224.3H432.764V225H428.144ZM433.866 225V224.41C434.34 224.037 434.786 223.66 435.206 223.28C435.633 222.893 436.01 222.513 436.336 222.14C436.67 221.767 436.93 221.4 437.116 221.04C437.31 220.68 437.406 220.333 437.406 220C437.406 219.753 437.363 219.523 437.276 219.31C437.196 219.097 437.063 218.927 436.876 218.8C436.69 218.667 436.436 218.6 436.116 218.6C435.81 218.6 435.553 218.67 435.346 218.81C435.14 218.943 434.983 219.123 434.876 219.35C434.776 219.577 434.726 219.82 434.726 220.08H433.916C433.916 219.62 434.013 219.227 434.206 218.9C434.4 218.567 434.663 218.313 434.996 218.14C435.33 217.967 435.706 217.88 436.126 217.88C436.746 217.88 437.253 218.057 437.646 218.41C438.046 218.757 438.246 219.277 438.246 219.97C438.246 220.383 438.143 220.793 437.936 221.2C437.73 221.6 437.466 221.99 437.146 222.37C436.826 222.743 436.483 223.093 436.116 223.42C435.756 223.747 435.42 224.04 435.106 224.3H438.486V225H433.866Z" fill="black" fill-opacity="0.6"/>
<path d="M465.56 225.87V225.1C464.907 225.027 464.39 224.793 464.01 224.4C463.63 224.007 463.44 223.507 463.44 222.9H464.32C464.32 223.253 464.423 223.57 464.63 223.85C464.843 224.123 465.153 224.3 465.56 224.38V221.67C465.513 221.657 465.463 221.643 465.41 221.63C465.363 221.61 465.317 221.593 465.27 221.58C464.73 221.393 464.33 221.163 464.07 220.89C463.81 220.61 463.68 220.247 463.68 219.8C463.673 219.28 463.837 218.847 464.17 218.5C464.51 218.153 464.973 217.953 465.56 217.9V217.09H466.25V217.9C466.81 217.967 467.257 218.177 467.59 218.53C467.923 218.883 468.093 219.313 468.1 219.82H467.22C467.22 219.573 467.14 219.337 466.98 219.11C466.82 218.877 466.577 218.72 466.25 218.64V221.06C466.303 221.073 466.357 221.09 466.41 221.11C466.463 221.13 466.52 221.147 466.58 221.16C466.913 221.28 467.213 221.42 467.48 221.58C467.747 221.74 467.953 221.947 468.1 222.2C468.253 222.453 468.33 222.777 468.33 223.17C468.33 223.483 468.253 223.78 468.1 224.06C467.947 224.34 467.713 224.577 467.4 224.77C467.093 224.963 466.71 225.077 466.25 225.11V225.87H465.56ZM464.55 219.72C464.55 220.027 464.64 220.26 464.82 220.42C465 220.573 465.247 220.707 465.56 220.82V218.62C465.26 218.667 465.017 218.787 464.83 218.98C464.643 219.167 464.55 219.413 464.55 219.72ZM467.46 223.22C467.46 222.833 467.347 222.547 467.12 222.36C466.893 222.173 466.603 222.02 466.25 221.9V224.4C466.637 224.353 466.933 224.22 467.14 224C467.353 223.78 467.46 223.52 467.46 223.22ZM471.701 225.12C471.255 225.12 470.851 225.04 470.491 224.88C470.131 224.713 469.841 224.467 469.621 224.14C469.408 223.813 469.295 223.407 469.281 222.92H470.131C470.138 223.32 470.278 223.667 470.551 223.96C470.825 224.247 471.208 224.39 471.701 224.39C472.195 224.39 472.565 224.253 472.811 223.98C473.065 223.707 473.191 223.377 473.191 222.99C473.191 222.663 473.111 222.397 472.951 222.19C472.798 221.983 472.588 221.83 472.321 221.73C472.061 221.63 471.775 221.58 471.461 221.58H470.941V220.87H471.461C471.915 220.87 472.268 220.767 472.521 220.56C472.781 220.353 472.911 220.063 472.911 219.69C472.911 219.377 472.808 219.12 472.601 218.92C472.401 218.713 472.101 218.61 471.701 218.61C471.315 218.61 471.005 218.727 470.771 218.96C470.538 219.187 470.408 219.473 470.381 219.82H469.531C469.551 219.44 469.651 219.103 469.831 218.81C470.018 218.517 470.271 218.29 470.591 218.13C470.911 217.963 471.281 217.88 471.701 217.88C472.155 217.88 472.531 217.96 472.831 218.12C473.138 218.28 473.368 218.493 473.521 218.76C473.681 219.027 473.761 219.32 473.761 219.64C473.761 219.993 473.665 220.317 473.471 220.61C473.278 220.897 472.988 221.09 472.601 221.19C473.015 221.277 473.358 221.473 473.631 221.78C473.905 222.087 474.041 222.49 474.041 222.99C474.041 223.377 473.951 223.733 473.771 224.06C473.598 224.38 473.338 224.637 472.991 224.83C472.645 225.023 472.215 225.12 471.701 225.12ZM475.29 225V224.41C475.763 224.037 476.21 223.66 476.63 223.28C477.057 222.893 477.433 222.513 477.76 222.14C478.093 221.767 478.353 221.4 478.54 221.04C478.733 220.68 478.83 220.333 478.83 220C478.83 219.753 478.787 219.523 478.7 219.31C478.62 219.097 478.487 218.927 478.3 218.8C478.113 218.667 477.86 218.6 477.54 218.6C477.233 218.6 476.977 218.67 476.77 218.81C476.563 218.943 476.407 219.123 476.3 219.35C476.2 219.577 476.15 219.82 476.15 220.08H475.34C475.34 219.62 475.437 219.227 475.63 218.9C475.823 218.567 476.087 218.313 476.42 218.14C476.753 217.967 477.13 217.88 477.55 217.88C478.17 217.88 478.677 218.057 479.07 218.41C479.47 218.757 479.67 219.277 479.67 219.97C479.67 220.383 479.567 220.793 479.36 221.2C479.153 221.6 478.89 221.99 478.57 222.37C478.25 222.743 477.907 223.093 477.54 223.42C477.18 223.747 476.843 224.04 476.53 224.3H479.91V225H475.29ZM483.755 225.12C483.135 225.12 482.598 224.97 482.145 224.67C481.698 224.363 481.355 223.94 481.115 223.4C480.875 222.853 480.755 222.22 480.755 221.5C480.755 220.78 480.875 220.15 481.115 219.61C481.355 219.063 481.698 218.64 482.145 218.34C482.598 218.033 483.135 217.88 483.755 217.88C484.375 217.88 484.908 218.033 485.355 218.34C485.802 218.64 486.145 219.063 486.385 219.61C486.625 220.15 486.745 220.78 486.745 221.5C486.745 222.22 486.625 222.853 486.385 223.4C486.145 223.94 485.802 224.363 485.355 224.67C484.908 224.97 484.375 225.12 483.755 225.12ZM483.755 224.38C484.162 224.38 484.525 224.267 484.845 224.04C485.172 223.807 485.425 223.477 485.605 223.05C485.792 222.617 485.885 222.1 485.885 221.5C485.885 220.9 485.792 220.387 485.605 219.96C485.425 219.533 485.172 219.207 484.845 218.98C484.525 218.747 484.162 218.63 483.755 218.63C483.342 218.63 482.975 218.747 482.655 218.98C482.335 219.207 482.082 219.533 481.895 219.96C481.708 220.387 481.615 220.9 481.615 221.5C481.615 222.1 481.708 222.617 481.895 223.05C482.082 223.477 482.335 223.807 482.655 224.04C482.975 224.267 483.342 224.38 483.755 224.38Z" fill="black" fill-opacity="0.6"/>
<rect x="532" y="210" width="40" height="22" fill="#00EC97" fill-opacity="0.15"/>
<path d="M542.71 224V217H545.16C545.707 217 546.16 217.093 546.52 217.28C546.88 217.46 547.147 217.71 547.32 218.03C547.5 218.343 547.59 218.7 547.59 219.1C547.59 219.48 547.503 219.83 547.33 220.15C547.163 220.463 546.9 220.713 546.54 220.9C546.18 221.087 545.72 221.18 545.16 221.18H543.77V224H542.71ZM543.77 220.31H545.11C545.61 220.31 545.967 220.203 546.18 219.99C546.4 219.77 546.51 219.473 546.51 219.1C546.51 218.713 546.4 218.413 546.18 218.2C545.967 217.98 545.61 217.87 545.11 217.87H543.77V220.31ZM550.004 224.12C549.584 224.12 549.238 224.05 548.964 223.91C548.691 223.77 548.488 223.587 548.354 223.36C548.221 223.127 548.154 222.873 548.154 222.6C548.154 222.12 548.341 221.74 548.714 221.46C549.088 221.18 549.621 221.04 550.314 221.04H551.614V220.95C551.614 220.563 551.508 220.273 551.294 220.08C551.088 219.887 550.818 219.79 550.484 219.79C550.191 219.79 549.934 219.863 549.714 220.01C549.501 220.15 549.371 220.36 549.324 220.64H548.264C548.298 220.28 548.418 219.973 548.624 219.72C548.838 219.46 549.104 219.263 549.424 219.13C549.751 218.99 550.108 218.92 550.494 218.92C551.188 218.92 551.724 219.103 552.104 219.47C552.484 219.83 552.674 220.323 552.674 220.95V224H551.754L551.664 223.15C551.524 223.423 551.321 223.653 551.054 223.84C550.788 224.027 550.438 224.12 550.004 224.12ZM550.214 223.26C550.501 223.26 550.741 223.193 550.934 223.06C551.134 222.92 551.288 222.737 551.394 222.51C551.508 222.283 551.578 222.033 551.604 221.76H550.424C550.004 221.76 549.704 221.833 549.524 221.98C549.351 222.127 549.264 222.31 549.264 222.53C549.264 222.757 549.348 222.937 549.514 223.07C549.688 223.197 549.921 223.26 550.214 223.26ZM554.51 218.1C554.31 218.1 554.144 218.04 554.01 217.92C553.884 217.793 553.82 217.637 553.82 217.45C553.82 217.263 553.884 217.11 554.01 216.99C554.144 216.863 554.31 216.8 554.51 216.8C554.71 216.8 554.874 216.863 555 216.99C555.134 217.11 555.2 217.263 555.2 217.45C555.2 217.637 555.134 217.793 555 217.92C554.874 218.04 554.71 218.1 554.51 218.1ZM553.98 224V219.04H555.04V224H553.98ZM558.7 224.12C558.22 224.12 557.796 224.007 557.43 223.78C557.063 223.553 556.776 223.243 556.57 222.85C556.363 222.457 556.26 222.01 556.26 221.51C556.26 221.01 556.363 220.567 556.57 220.18C556.776 219.787 557.063 219.48 557.43 219.26C557.803 219.033 558.23 218.92 558.71 218.92C559.103 218.92 559.446 218.997 559.74 219.15C560.04 219.303 560.273 219.52 560.44 219.8V216.8H561.5V224H560.55L560.44 223.23C560.28 223.463 560.06 223.67 559.78 223.85C559.5 224.03 559.14 224.12 558.7 224.12ZM558.89 223.2C559.343 223.2 559.713 223.043 560 222.73C560.293 222.417 560.44 222.013 560.44 221.52C560.44 221.02 560.293 220.617 560 220.31C559.713 219.997 559.343 219.84 558.89 219.84C558.436 219.84 558.063 219.997 557.77 220.31C557.476 220.617 557.33 221.02 557.33 221.52C557.33 221.847 557.396 222.137 557.53 222.39C557.663 222.643 557.846 222.843 558.08 222.99C558.32 223.13 558.59 223.2 558.89 223.2Z" fill="#00EC97"/>
<g filter="url(#filter0_d_118_95)">
<rect x="26" y="159" width="188" height="173" fill="white"/>
</g>
<path d="M120.5 178L128.828 189.577L140.08 180.815L144.81 194.269L158.075 189.033L158.822 203.274L173.025 201.987L169.729 215.862L183.719 218.629L176.649 231.013L189.293 237.609L179.019 247.5L189.293 257.391L176.649 263.987L183.719 276.371L169.729 279.138L173.025 293.013L158.822 291.726L158.075 305.967L144.81 300.731L140.08 314.185L128.828 305.423L120.5 317L112.172 305.423L100.92 314.185L96.1903 300.731L82.9255 305.967L82.1782 291.726L67.9754 293.013L71.2707 279.138L57.2806 276.371L64.3514 263.987L51.7074 257.391L61.981 247.5L51.7074 237.609L64.3514 231.013L57.2806 218.629L71.2707 215.862L67.9754 201.987L82.1782 203.274L82.9255 189.033L96.1903 194.269L100.92 180.815L112.172 189.577L120.5 178Z" fill="#00EC97"/>
<path d="M83.5577 244.2C87.8177 244.2 89.5177 242.24 89.5177 240.06C89.5177 238.22 88.4377 236.76 85.4377 236.28L81.6777 235.68C80.5577 235.48 80.1177 235.2 80.1177 234.42C80.1177 233.56 80.7777 233.14 82.9377 233.14C85.5977 233.14 86.2577 233.68 86.2577 234.96V235.24H89.2777V235.12C89.2777 232.3 87.3577 230.4 83.2377 230.4C78.7377 230.4 77.0977 232.52 77.0977 234.54C77.0977 236.72 78.5177 237.92 80.9177 238.3L84.6777 238.84C86.0577 239.08 86.5177 239.38 86.5177 240.2C86.5177 241.1 85.9577 241.46 83.5577 241.46C80.8377 241.46 80.2177 240.96 80.2177 239.72V239.36H77.2177V239.48C77.2177 242.6 79.4977 244.2 83.5577 244.2ZM96.0595 244.2C99.2395 244.2 101.359 242.68 101.359 240.5V240.28H98.3595V240.48C98.3595 241.34 97.7395 241.8 95.9595 241.8C94.0195 241.8 93.2995 241.14 93.2195 239.6H101.379C101.419 239.26 101.459 239 101.459 238.64C101.459 235.5 99.2795 233.78 95.9995 233.78C92.6995 233.78 90.4395 235.8 90.4395 239C90.4395 242.56 92.7195 244.2 96.0595 244.2ZM95.9395 236.12C97.6995 236.12 98.4995 236.7 98.5795 238.02H93.2595C93.3995 236.72 94.1595 236.12 95.9395 236.12ZM108.072 244.2C111.292 244.2 113.492 242.46 113.492 239.88V239.6H110.512V239.76C110.512 241.04 109.572 241.5 108.012 241.5C106.232 241.5 105.412 240.84 105.412 239C105.412 237.14 106.232 236.48 108.012 236.48C109.572 236.48 110.512 236.94 110.512 238.22V238.38H113.492V238.1C113.492 235.5 111.292 233.78 108.072 233.78C104.632 233.78 102.432 235.8 102.432 239C102.432 242.16 104.632 244.2 108.072 244.2ZM118.922 244.2C121.562 244.2 122.782 242.62 123.042 240.94H123.202V244H126.002V233.98H123.002V239.06C123.002 240.76 122.302 241.52 120.342 241.52C118.442 241.52 117.762 240.84 117.762 239.22V233.98H114.762V240.22C114.762 242.46 116.102 244.2 118.922 244.2ZM130.536 244V238.2C130.536 236.94 131.016 236.32 132.356 236.32C133.576 236.32 134.016 236.8 134.016 237.9V238.94H137.016V237.28C137.016 235.32 136.096 233.78 133.856 233.78C131.836 233.78 130.776 235.02 130.496 236.64H130.316V233.98H127.536V244H130.536ZM143.423 244.2C146.603 244.2 148.723 242.68 148.723 240.5V240.28H145.723V240.48C145.723 241.34 145.103 241.8 143.323 241.8C141.383 241.8 140.663 241.14 140.583 239.6H148.743C148.783 239.26 148.823 239 148.823 238.64C148.823 235.5 146.643 233.78 143.363 233.78C140.063 233.78 137.803 235.8 137.803 239C137.803 242.56 140.083 244.2 143.423 244.2ZM143.303 236.12C145.063 236.12 145.863 236.7 145.943 238.02H140.623C140.763 236.72 141.523 236.12 143.303 236.12ZM154.575 244.2C156.875 244.2 158.195 243.2 158.575 241.22H158.735V244H161.535V230.6H158.535V236.64H158.355C158.015 234.96 156.795 233.78 154.415 233.78C151.435 233.78 149.735 235.8 149.735 239C149.735 242.16 151.455 244.2 154.575 244.2ZM152.775 239C152.775 237.16 153.675 236.52 155.595 236.52C157.515 236.52 158.535 237.16 158.535 238.9V239.06C158.535 240.8 157.495 241.46 155.595 241.46C153.675 241.46 152.775 240.82 152.775 239ZM72.8508 267.4V261.3H72.9908C73.3308 263.06 74.6108 264.2 76.9308 264.2C79.9508 264.2 81.6308 262.18 81.6308 259C81.6308 255.82 79.9108 253.78 76.8308 253.78C74.4708 253.78 73.1908 254.8 72.8308 256.72H72.6308V253.98H69.8508V267.4H72.8508ZM72.8508 259.14V258.98C72.8508 257.2 73.8508 256.54 75.7908 256.54C77.6908 256.54 78.5908 257.16 78.5908 259C78.5908 260.82 77.6908 261.46 75.7708 261.46C73.8908 261.46 72.8508 260.86 72.8508 259.14ZM85.9581 264.2C88.1781 264.2 89.5781 263.26 90.0381 261.7H90.1981V264H92.9981V258.12C92.9981 255.5 91.4181 253.78 88.0781 253.78C84.7781 253.78 82.6981 255.5 82.6981 257.98V258.04H85.7181V257.96C85.7181 256.82 86.3381 256.42 87.8581 256.42C89.4581 256.42 90.0381 256.78 90.0381 258.08V258.46L85.7381 258.9C83.5981 259.12 82.4981 260.04 82.4981 261.52C82.4981 263.2 83.7981 264.2 85.9581 264.2ZM85.5181 261.32C85.5181 260.84 85.8381 260.64 86.5581 260.58L90.0381 260.18C89.9581 261.6 88.8581 262.08 86.8181 262.08C85.9381 262.08 85.5181 261.86 85.5181 261.32ZM96.4388 267.4C98.9588 267.4 100.299 266.82 101.259 264.72L106.219 253.98H102.879L100.979 258.54L100.179 260.92H99.9788L99.1388 258.56L97.0188 253.98H93.6187L98.5188 264.04C98.3188 264.48 97.9988 264.68 97.2588 264.68H94.7988V267.4H96.4388ZM109.941 264V258.94C109.941 257.2 110.461 256.48 112.281 256.48C114.001 256.48 114.581 257.1 114.581 258.76V264H117.581V258.94C117.581 257.2 118.101 256.48 119.921 256.48C121.641 256.48 122.221 257.1 122.221 258.76V264H125.221V257.76C125.221 255.48 123.961 253.78 121.381 253.78C118.801 253.78 117.781 255.36 117.541 257.06H117.361C117.141 255.2 115.961 253.78 113.641 253.78C111.121 253.78 110.121 255.34 109.881 257.02H109.721V253.98H106.941V264H109.941ZM132.065 264.2C135.245 264.2 137.365 262.68 137.365 260.5V260.28H134.365V260.48C134.365 261.34 133.745 261.8 131.965 261.8C130.025 261.8 129.305 261.14 129.225 259.6H137.385C137.425 259.26 137.465 259 137.465 258.64C137.465 255.5 135.285 253.78 132.005 253.78C128.705 253.78 126.445 255.8 126.445 259C126.445 262.56 128.725 264.2 132.065 264.2ZM131.945 256.12C133.705 256.12 134.505 256.7 134.585 258.02H129.265C129.405 256.72 130.165 256.12 131.945 256.12ZM141.738 264V258.94C141.738 257.24 142.418 256.48 144.318 256.48C146.158 256.48 146.818 257.16 146.818 258.76V264H149.818V257.76C149.818 255.54 148.518 253.78 145.778 253.78C143.158 253.78 141.958 255.38 141.698 257.06H141.518V253.98H138.738V264H141.738ZM158.395 264V261.3H156.595C155.535 261.3 155.155 261.04 155.155 260.04V256.46H158.395V253.98H155.155V252.04H152.155V253.98H150.575V256.46H152.155V260.38C152.155 262.9 153.575 264 155.915 264H158.395ZM164.579 264.2C167.679 264.2 169.539 262.96 169.539 261.08C169.539 259.42 168.539 258.52 165.859 258.22L163.719 257.96C162.399 257.8 162.119 257.58 162.119 257.06C162.119 256.42 162.499 256.16 163.999 256.16C165.839 256.16 166.239 256.58 166.239 257.4V257.52H169.239V257.46C169.239 255.02 167.379 253.78 164.099 253.78C160.659 253.78 159.159 255.18 159.159 256.94C159.159 258.62 160.279 259.52 162.279 259.74L165.099 260.08C166.279 260.24 166.579 260.4 166.579 260.96C166.579 261.56 166.199 261.82 164.599 261.82C162.899 261.82 162.339 261.58 162.339 260.68V260.5H159.339V260.56C159.339 262.88 161.199 264.2 164.579 264.2Z" fill="white"/>
<g clip-path="url(#clip0_118_95)">
<path d="M204.365 146.866C198.766 148.238 194.996 153.185 194.856 158.682L199.849 158.813C199.897 156.998 200.601 155.262 201.832 153.928C203.063 152.593 204.736 151.751 206.541 151.556C208.346 151.362 210.16 151.829 211.647 152.871C213.134 153.913 214.192 155.459 214.625 157.222L217.599 169.363L222.456 168.173L219.481 156.032C217.838 149.327 211.071 145.223 204.365 146.866Z" fill="#BCBEC0"/>
<path d="M228.454 182.147C228.769 183.435 228.56 184.796 227.873 185.93C227.185 187.064 226.075 187.878 224.787 188.193L205.362 192.953C204.074 193.269 202.713 193.06 201.579 192.372C200.445 191.684 199.631 190.575 199.315 189.287L196.341 177.146C196.025 175.858 196.234 174.497 196.922 173.363C197.609 172.229 198.719 171.415 200.007 171.099L219.433 166.34C220.721 166.024 222.081 166.233 223.215 166.921C224.349 167.608 225.163 168.718 225.479 170.006L228.454 182.147Z" fill="#FFAC33"/>
</g>
<defs>
<filter id="filter0_d_118_95" x="0" y="133" width="238" height="223" filterUnits="userSpaceOnUse" color-interpolation-filters="sRGB">
<feFlood flood-opacity="0" result="BackgroundImageFix"/>
<feColorMatrix in="SourceAlpha" type="matrix" values="0 0 0 0 0 0 0 0 0 0 0 0 0 0 0 0 0 0 127 0" result="hardAlpha"/>
<feOffset dx="-1" dy="-1"/>
<feGaussianBlur stdDeviation="12.5"/>
<feComposite in2="hardAlpha" operator="out"/>
<feColorMatrix type="matrix" values="0 0 0 0 0 0 0 0 0 0 0 0 0 0 0 0 0 0 0.1 0"/>
<feBlend mode="normal" in2="BackgroundImageFix" result="effect1_dropShadow_118_95"/>
<feBlend mode="normal" in="SourceGraphic" in2="effect1_dropShadow_118_95" result="shape"/>
</filter>
<clipPath id="clip0_118_95">
<rect width="47.5" height="47.5" fill="white" transform="translate(181 151.304) rotate(-13.7673)"/>
</clipPath>
</defs>
</svg>
